<svg xmlns="http://www.w3.org/2000/svg" xmlns:xlink="http://www.w3.org/1999/xlink" width="1024" zoomAndPan="magnify" viewBox="0 0 205.92 90.749999" height="1024" preserveAspectRatio="xMidYMid meet" version="1.2" class="injected-svg" data-src="https://firebasestorage.googleapis.com/v0/b/brandkitpro.appspot.com/o/repositories%2Fevoanova%2Flogos%2Ficon-standard.svg?alt=media&amp;token=677c47ec-df08-47d7-8943-bbb2433dc28c" style="height: 160px; width: 100%" id="svg-9e1ca2"><defs><clipPath id="9675696cd5-1771"><path d="M 63.042969 49.421875 L 142.851562 49.421875 L 142.851562 77.472656 L 63.042969 77.472656 Z M 63.042969 49.421875 "/></clipPath><clipPath id="fedaaa1134-1772"><path d="M 102.964844 49.457031 C 101.4375 49.457031 99.914062 49.667969 98.425781 50.078125 C 88.714844 52.769531 71.960938 57.464844 65.667969 59.25 C 64.191406 59.671875 63.183594 60.988281 63.183594 62.492188 L 63.183594 74.03125 C 63.183594 75.945312 64.78125 77.402344 66.613281 77.402344 C 66.902344 77.402344 67.214844 77.363281 67.511719 77.28125 C 69.617188 76.734375 71.699219 76.183594 73.785156 75.625 C 82.03125 73.433594 90.289062 71.25 98.535156 69.042969 C 99.992188 68.65625 101.480469 68.457031 102.976562 68.457031 C 104.46875 68.457031 105.957031 68.65625 107.414062 69.042969 C 115.660156 71.25 123.917969 73.441406 132.164062 75.625 C 134.25 76.175781 136.332031 76.722656 138.4375 77.28125 C 138.734375 77.363281 139.035156 77.402344 139.335938 77.402344 C 141.167969 77.402344 142.765625 75.9375 142.765625 74.03125 L 142.765625 62.492188 C 142.765625 60.988281 141.757812 59.671875 140.28125 59.25 C 133.988281 57.476562 117.234375 52.78125 107.523438 50.078125 C 106.035156 49.667969 104.511719 49.457031 102.984375 49.457031 Z M 102.964844 49.457031 "/></clipPath><clipPath id="92331bde3e-1773"><path d="M 0.0429688 0.421875 L 79.851562 0.421875 L 79.851562 28.472656 L 0.0429688 28.472656 Z M 0.0429688 0.421875 "/></clipPath><clipPath id="0672cda2ca-1774"><path d="M 39.964844 0.457031 C 38.4375 0.457031 36.914062 0.667969 35.425781 1.078125 C 25.714844 3.769531 8.960938 8.464844 2.667969 10.25 C 1.191406 10.671875 0.183594 11.988281 0.183594 13.492188 L 0.183594 25.03125 C 0.183594 26.945312 1.78125 28.402344 3.613281 28.402344 C 3.902344 28.402344 4.214844 28.363281 4.511719 28.28125 C 6.617188 27.734375 8.699219 27.183594 10.785156 26.625 C 19.03125 24.433594 27.289062 22.25 35.535156 20.042969 C 36.992188 19.65625 38.480469 19.457031 39.976562 19.457031 C 41.46875 19.457031 42.957031 19.65625 44.414062 20.042969 C 52.660156 22.25 60.917969 24.441406 69.164062 26.625 C 71.25 27.175781 73.332031 27.722656 75.4375 28.28125 C 75.734375 28.363281 76.035156 28.402344 76.335938 28.402344 C 78.167969 28.402344 79.765625 26.9375 79.765625 25.03125 L 79.765625 13.492188 C 79.765625 11.988281 78.757812 10.671875 77.28125 10.25 C 70.988281 8.476562 54.234375 3.78125 44.523438 1.078125 C 43.035156 0.667969 41.511719 0.457031 39.984375 0.457031 Z M 39.964844 0.457031 "/></clipPath><clipPath id="3523bb1707-1775"><rect x="0" width="80" y="0" height="29"/></clipPath><clipPath id="4e488a4a08-1776"><path d="M 63.042969 13.277344 L 142.851562 13.277344 L 142.851562 56.652344 L 63.042969 56.652344 Z M 63.042969 13.277344 "/></clipPath><clipPath id="f3f9945201-1777"><path d="M 102.953125 13.347656 C 100.929688 13.347656 98.90625 14.078125 96.8125 15.542969 C 85.929688 23.222656 75.0625 30.929688 64.171875 38.589844 C 63.414062 39.128906 63.105469 39.675781 63.113281 40.601562 C 63.144531 44.242188 63.144531 50.773438 63.144531 54.695312 C 63.144531 55.792969 64.050781 56.578125 65.058594 56.578125 C 65.367188 56.578125 65.6875 56.5 65.988281 56.339844 C 73.027344 52.5 89.96875 43.246094 97.152344 39.257812 C 99.117188 38.167969 101.03125 37.632812 102.945312 37.632812 C 102.945312 37.632812 102.953125 37.632812 102.953125 37.632812 C 102.953125 37.632812 102.964844 37.632812 102.964844 37.632812 C 104.878906 37.632812 106.804688 38.167969 108.757812 39.257812 C 115.9375 43.246094 132.890625 52.5 139.921875 56.339844 C 140.222656 56.507812 140.542969 56.578125 140.851562 56.578125 C 141.847656 56.578125 142.765625 55.792969 142.765625 54.695312 C 142.765625 50.785156 142.765625 44.273438 142.796875 40.632812 L 142.796875 40.523438 C 142.785156 39.644531 142.476562 39.117188 141.738281 38.597656 C 130.859375 30.929688 119.988281 23.222656 109.109375 15.542969 C 107.011719 14.078125 104.988281 13.347656 102.964844 13.347656 Z M 102.953125 13.347656 "/></clipPath><clipPath id="9eecd5ea96-1778"><path d="M 0.0429688 0.277344 L 79.851562 0.277344 L 79.851562 43.652344 L 0.0429688 43.652344 Z M 0.0429688 0.277344 "/></clipPath><clipPath id="ffecb1644f-1779"><path d="M 39.953125 0.347656 C 37.929688 0.347656 35.90625 1.078125 33.8125 2.542969 C 22.929688 10.222656 12.0625 17.929688 1.171875 25.589844 C 0.414062 26.128906 0.105469 26.675781 0.113281 27.601562 C 0.144531 31.242188 0.144531 37.773438 0.144531 41.695312 C 0.144531 42.792969 1.050781 43.578125 2.058594 43.578125 C 2.367188 43.578125 2.6875 43.5 2.988281 43.339844 C 10.027344 39.5 26.96875 30.246094 34.152344 26.257812 C 36.117188 25.167969 38.03125 24.632812 39.945312 24.632812 C 39.945312 24.632812 39.953125 24.632812 39.953125 24.632812 C 39.953125 24.632812 39.964844 24.632812 39.964844 24.632812 C 41.878906 24.632812 43.804688 25.167969 45.757812 26.257812 C 52.9375 30.246094 69.890625 39.5 76.921875 43.339844 C 77.222656 43.507812 77.542969 43.578125 77.851562 43.578125 C 78.847656 43.578125 79.765625 42.792969 79.765625 41.695312 C 79.765625 37.785156 79.765625 31.273438 79.796875 27.632812 L 79.796875 27.523438 C 79.785156 26.644531 79.476562 26.117188 78.738281 25.597656 C 67.859375 17.929688 56.988281 10.222656 46.109375 2.542969 C 44.011719 1.078125 41.988281 0.347656 39.964844 0.347656 Z M 39.953125 0.347656 "/></clipPath><clipPath id="8bb426c46b-1780"><rect x="0" width="80" y="0" height="44"/></clipPath></defs><g id="df8547887b"><g clip-rule="nonzero" clip-path="url(#9675696cd5-1771)"><g clip-rule="nonzero" clip-path="url(#fedaaa1134-1772)"><g transform="matrix(1,0,0,1,63,49)"><g clip-path="url(#3523bb1707-1775)"><g clip-rule="nonzero" clip-path="url(#92331bde3e-1773)"><g clip-rule="nonzero" clip-path="url(#0672cda2ca-1774)"><rect x="0" width="80" height="29" y="0" style="fill:#f06722;fill-opacity:1;stroke:none;"/></g></g></g></g></g></g><g clip-rule="nonzero" clip-path="url(#4e488a4a08-1776)"><g clip-rule="nonzero" clip-path="url(#f3f9945201-1777)"><g transform="matrix(1,0,0,1,63,13)"><g clip-path="url(#8bb426c46b-1780)"><g clip-rule="nonzero" clip-path="url(#9eecd5ea96-1778)"><g clip-rule="nonzero" clip-path="url(#ffecb1644f-1779)"><rect x="0" width="80" height="44" y="0" style="fill:#f06722;fill-opacity:1;stroke:none;"/></g></g></g></g></g></g></g></svg>