<svg xmlns="http://www.w3.org/2000/svg" xmlns:xlink="http://www.w3.org/1999/xlink" width="1024" zoomAndPan="magnify" viewBox="0 0 205.92 90.749999" height="1024" preserveAspectRatio="xMidYMid meet" version="1.2" class="injected-svg" data-src="https://firebasestorage.googleapis.com/v0/b/brandkitpro.appspot.com/o/repositories%2Fevoanova%2Flogos%2Flogo-standard-white.svg?alt=media&amp;token=f5450f11-de64-4b8c-a6d7-303b532ea21d" style="height: 160px; width: 100%" id="svg-53f2a6"><defs><clipPath id="b29c713e39-1771"><path d="M 18.371094 30.785156 L 46.691406 30.785156 L 46.691406 40.738281 L 18.371094 40.738281 Z M 18.371094 30.785156 "/></clipPath><clipPath id="ef84cb17a8-1772"><path d="M 45.773438 34.273438 C 43.539062 33.640625 37.59375 31.976562 34.148438 31.015625 C 33.621094 30.871094 33.078125 30.796875 32.539062 30.796875 C 31.996094 30.796875 31.453125 30.871094 30.925781 31.015625 C 27.480469 31.972656 21.535156 33.640625 19.300781 34.273438 C 18.777344 34.421875 18.421875 34.886719 18.421875 35.421875 L 18.421875 39.515625 C 18.421875 40.300781 19.179688 40.875 19.957031 40.675781 C 20.703125 40.480469 21.441406 40.285156 22.183594 40.085938 C 25.109375 39.308594 28.039062 38.53125 30.964844 37.746094 C 31.484375 37.609375 32.011719 37.542969 32.539062 37.539062 C 33.070312 37.535156 33.597656 37.609375 34.117188 37.746094 C 37.042969 38.53125 39.972656 39.308594 42.898438 40.085938 C 43.640625 40.28125 44.378906 40.476562 45.125 40.675781 C 45.898438 40.875 46.65625 40.304688 46.65625 39.515625 L 46.65625 35.421875 C 46.65625 34.886719 46.300781 34.421875 45.777344 34.273438 "/></clipPath><clipPath id="a03600cead-1773"><path d="M 0.371094 0.785156 L 28.675781 0.785156 L 28.675781 10.738281 L 0.371094 10.738281 Z M 0.371094 0.785156 "/></clipPath><clipPath id="ed95054ee0-1774"><path d="M 27.773438 4.273438 C 25.539062 3.640625 19.59375 1.976562 16.148438 1.015625 C 15.621094 0.871094 15.078125 0.796875 14.539062 0.796875 C 13.996094 0.796875 13.453125 0.871094 12.925781 1.015625 C 9.480469 1.972656 3.535156 3.640625 1.300781 4.273438 C 0.777344 4.421875 0.421875 4.886719 0.421875 5.421875 L 0.421875 9.515625 C 0.421875 10.300781 1.179688 10.875 1.957031 10.675781 C 2.703125 10.480469 3.441406 10.285156 4.183594 10.085938 C 7.109375 9.308594 10.039062 8.53125 12.964844 7.746094 C 13.484375 7.609375 14.011719 7.542969 14.539062 7.539062 C 15.070312 7.535156 15.597656 7.609375 16.117188 7.746094 C 19.042969 8.53125 21.972656 9.308594 24.898438 10.085938 C 25.640625 10.28125 26.378906 10.476562 27.125 10.675781 C 27.898438 10.875 28.65625 10.304688 28.65625 9.515625 L 28.65625 5.421875 C 28.65625 4.886719 28.300781 4.421875 27.777344 4.273438 "/></clipPath><clipPath id="ff8dfc218f-1775"><rect x="0" width="29" y="0" height="11"/></clipPath><clipPath id="6911fadce6-1776"><path d="M 18.371094 17.957031 L 46.691406 17.957031 L 46.691406 33.351562 L 18.371094 33.351562 Z M 18.371094 17.957031 "/></clipPath><clipPath id="7552b4eb51-1777"><path d="M 32.535156 17.984375 C 31.816406 17.984375 31.097656 18.242188 30.355469 18.761719 C 26.492188 21.488281 22.636719 24.222656 18.769531 26.941406 C 18.503906 27.128906 18.390625 27.328125 18.394531 27.65625 C 18.40625 28.949219 18.40625 31.269531 18.40625 32.660156 C 18.40625 33.046875 18.730469 33.328125 19.085938 33.328125 C 19.195312 33.328125 19.308594 33.300781 19.414062 33.242188 C 21.914062 31.878906 27.925781 28.597656 30.472656 27.179688 C 31.171875 26.792969 31.851562 26.605469 32.53125 26.605469 C 32.53125 26.605469 32.535156 26.605469 32.535156 26.605469 C 32.535156 26.605469 32.539062 26.605469 32.539062 26.605469 C 33.21875 26.605469 33.898438 26.792969 34.59375 27.179688 C 37.140625 28.597656 43.15625 31.878906 45.652344 33.242188 C 45.757812 33.300781 45.871094 33.328125 45.980469 33.328125 C 46.335938 33.328125 46.660156 33.046875 46.660156 32.660156 C 46.660156 31.269531 46.660156 28.953125 46.671875 27.65625 C 46.675781 27.328125 46.566406 27.132812 46.296875 26.941406 C 42.4375 24.222656 38.578125 21.488281 34.71875 18.761719 C 33.972656 18.242188 33.253906 17.984375 32.539062 17.984375 Z M 32.535156 17.984375 "/></clipPath><clipPath id="8c22a19bef-1778"><path d="M 0.371094 0.957031 L 28.691406 0.957031 L 28.691406 16.351562 L 0.371094 16.351562 Z M 0.371094 0.957031 "/></clipPath><clipPath id="f15c5a33cd-1779"><path d="M 14.535156 0.984375 C 13.816406 0.984375 13.097656 1.242188 12.355469 1.761719 C 8.492188 4.488281 4.636719 7.222656 0.769531 9.941406 C 0.503906 10.128906 0.390625 10.328125 0.394531 10.65625 C 0.40625 11.949219 0.40625 14.269531 0.40625 15.660156 C 0.40625 16.046875 0.730469 16.328125 1.085938 16.328125 C 1.195312 16.328125 1.308594 16.300781 1.414062 16.242188 C 3.914062 14.878906 9.925781 11.597656 12.472656 10.179688 C 13.171875 9.792969 13.851562 9.605469 14.53125 9.605469 C 14.53125 9.605469 14.535156 9.605469 14.535156 9.605469 C 14.535156 9.605469 14.539062 9.605469 14.539062 9.605469 C 15.21875 9.605469 15.898438 9.792969 16.59375 10.179688 C 19.140625 11.597656 25.15625 14.878906 27.652344 16.242188 C 27.757812 16.300781 27.871094 16.328125 27.980469 16.328125 C 28.335938 16.328125 28.660156 16.046875 28.660156 15.660156 C 28.660156 14.269531 28.660156 11.953125 28.671875 10.65625 C 28.675781 10.328125 28.566406 10.132812 28.296875 9.941406 C 24.4375 7.222656 20.578125 4.488281 16.71875 1.761719 C 15.972656 1.242188 15.253906 0.984375 14.539062 0.984375 Z M 14.535156 0.984375 "/></clipPath><clipPath id="78dccbad85-1780"><rect x="0" width="29" y="0" height="17"/></clipPath><clipPath id="b43ea068b4-1781"><path d="M 76.964844 59.03125 L 80.152344 59.03125 L 80.152344 62.859375 L 76.964844 62.859375 Z M 76.964844 59.03125 "/></clipPath><clipPath id="39e6e365d9-1782"><path d="M 79.417969 60.402344 C 79.417969 59.929688 79.097656 59.652344 78.484375 59.652344 L 77.664062 59.652344 L 77.664062 61.152344 L 78.488281 61.152344 C 79.101562 61.152344 79.421875 60.875 79.421875 60.402344 M 80.128906 60.402344 C 80.128906 61.234375 79.511719 61.742188 78.523438 61.742188 L 77.664062 61.742188 L 77.664062 62.832031 L 76.964844 62.832031 L 76.964844 59.058594 L 78.519531 59.058594 C 79.507812 59.058594 80.125 59.5625 80.125 60.398438 "/></clipPath><clipPath id="ee01acd8f1-1783"><path d="M 0.964844 0.03125 L 4.152344 0.03125 L 4.152344 3.859375 L 0.964844 3.859375 Z M 0.964844 0.03125 "/></clipPath><clipPath id="7dd03a0d3e-1784"><path d="M 3.417969 1.402344 C 3.417969 0.929688 3.097656 0.652344 2.484375 0.652344 L 1.664062 0.652344 L 1.664062 2.152344 L 2.488281 2.152344 C 3.101562 2.152344 3.421875 1.875 3.421875 1.402344 M 4.128906 1.402344 C 4.128906 2.234375 3.511719 2.742188 2.523438 2.742188 L 1.664062 2.742188 L 1.664062 3.832031 L 0.964844 3.832031 L 0.964844 0.0585938 L 2.519531 0.0585938 C 3.507812 0.0585938 4.125 0.5625 4.125 1.398438 "/></clipPath><clipPath id="b94f317a9f-1785"><rect x="0" width="5" y="0" height="4"/></clipPath><clipPath id="5680885316-1786"><path d="M 80.589844 59.003906 L 84.675781 59.003906 L 84.675781 62.917969 L 80.589844 62.917969 Z M 80.589844 59.003906 "/></clipPath><clipPath id="730bb75bb2-1787"><path d="M 83.96875 60.945312 C 83.96875 60.175781 83.402344 59.621094 82.640625 59.621094 C 81.878906 59.621094 81.316406 60.175781 81.316406 60.945312 C 81.316406 61.71875 81.878906 62.273438 82.640625 62.273438 C 83.402344 62.273438 83.96875 61.71875 83.96875 60.945312 M 80.609375 60.945312 C 80.609375 59.828125 81.46875 59.003906 82.640625 59.003906 C 83.8125 59.003906 84.671875 59.824219 84.671875 60.945312 C 84.671875 62.070312 83.808594 62.890625 82.640625 62.890625 C 81.472656 62.890625 80.609375 62.066406 80.609375 60.945312 "/></clipPath><clipPath id="cae9f25bc1-1788"><path d="M 0.589844 0.00390625 L 4.675781 0.00390625 L 4.675781 3.917969 L 0.589844 3.917969 Z M 0.589844 0.00390625 "/></clipPath><clipPath id="d9a7a13373-1789"><path d="M 3.96875 1.945312 C 3.96875 1.175781 3.402344 0.621094 2.640625 0.621094 C 1.878906 0.621094 1.316406 1.175781 1.316406 1.945312 C 1.316406 2.71875 1.878906 3.273438 2.640625 3.273438 C 3.402344 3.273438 3.96875 2.71875 3.96875 1.945312 M 0.609375 1.945312 C 0.609375 0.828125 1.46875 0.00390625 2.640625 0.00390625 C 3.8125 0.00390625 4.671875 0.824219 4.671875 1.945312 C 4.671875 3.070312 3.808594 3.890625 2.640625 3.890625 C 1.472656 3.890625 0.609375 3.066406 0.609375 1.945312 "/></clipPath><clipPath id="1b25797e2b-1790"><rect x="0" width="5" y="0" height="4"/></clipPath><clipPath id="d8254249a6-1791"><path d="M 84.9375 59.03125 L 90.820312 59.03125 L 90.820312 62.859375 L 84.9375 62.859375 Z M 84.9375 59.03125 "/></clipPath><clipPath id="6d66074d16-1792"><path d="M 90.816406 59.058594 L 89.5625 62.832031 L 88.820312 62.832031 L 87.886719 60.042969 L 86.9375 62.832031 L 86.1875 62.832031 L 84.9375 59.058594 L 85.667969 59.058594 L 86.605469 61.925781 L 87.582031 59.058594 L 88.230469 59.058594 L 89.183594 61.941406 L 90.152344 59.058594 Z M 90.816406 59.058594 "/></clipPath><clipPath id="d0f25e13a3-1793"><path d="M 0.9375 0.03125 L 6.820312 0.03125 L 6.820312 3.859375 L 0.9375 3.859375 Z M 0.9375 0.03125 "/></clipPath><clipPath id="11b8788d0e-1794"><path d="M 6.816406 0.0585938 L 5.5625 3.832031 L 4.820312 3.832031 L 3.886719 1.042969 L 2.9375 3.832031 L 2.1875 3.832031 L 0.9375 0.0585938 L 1.667969 0.0585938 L 2.605469 2.925781 L 3.582031 0.0585938 L 4.230469 0.0585938 L 5.183594 2.941406 L 6.152344 0.0585938 Z M 6.816406 0.0585938 "/></clipPath><clipPath id="d26f791cd6-1795"><rect x="0" width="7" y="0" height="4"/></clipPath><clipPath id="5cdbc6cb83-1796"><path d="M 91.386719 59.058594 L 94.144531 59.058594 L 94.144531 59.644531 L 91.386719 59.644531 Z M 91.386719 59.644531 L 92.085938 59.644531 L 92.085938 60.628906 L 91.386719 60.628906 Z M 91.386719 60.628906 L 93.910156 60.628906 L 93.910156 61.207031 L 91.386719 61.207031 Z M 91.386719 61.207031 L 92.085938 61.207031 L 92.085938 62.246094 L 91.386719 62.246094 Z M 91.386719 62.246094 L 94.21875 62.246094 L 94.21875 62.832031 L 91.386719 62.832031 Z M 91.386719 62.246094 "/></clipPath><clipPath id="338515d71c-1797"><path d="M 0.386719 0.0585938 L 3.144531 0.0585938 L 3.144531 0.644531 L 0.386719 0.644531 Z M 0.386719 0.644531 L 1.085938 0.644531 L 1.085938 1.628906 L 0.386719 1.628906 Z M 0.386719 1.628906 L 2.910156 1.628906 L 2.910156 2.207031 L 0.386719 2.207031 Z M 0.386719 2.207031 L 1.085938 2.207031 L 1.085938 3.246094 L 0.386719 3.246094 Z M 0.386719 3.246094 L 3.21875 3.246094 L 3.21875 3.832031 L 0.386719 3.832031 Z M 0.386719 3.246094 "/></clipPath><clipPath id="75241bf838-1798"><rect x="0" width="4" y="0" height="4"/></clipPath><clipPath id="538e12ccf1-1799"><path d="M 95 59.03125 L 98.242188 59.03125 L 98.242188 62.859375 L 95 62.859375 Z M 95 59.03125 "/></clipPath><clipPath id="2a66935d63-1800"><path d="M 96.515625 59.652344 L 95.699219 59.652344 L 95.699219 61.15625 L 96.519531 61.15625 C 97.136719 61.15625 97.457031 60.875 97.457031 60.402344 C 97.457031 59.929688 97.136719 59.652344 96.519531 59.652344 M 97.46875 62.832031 L 96.699219 61.730469 C 96.648438 61.734375 96.597656 61.734375 96.550781 61.734375 L 95.699219 61.734375 L 95.699219 62.832031 L 95 62.832031 L 95 59.058594 L 96.550781 59.058594 C 97.542969 59.058594 98.160156 59.5625 98.160156 60.398438 C 98.160156 60.972656 97.871094 61.390625 97.355469 61.589844 L 98.222656 62.828125 Z M 97.46875 62.832031 "/></clipPath><clipPath id="da204f67a9-1801"><path d="M 0 0.03125 L 3.242188 0.03125 L 3.242188 3.859375 L 0 3.859375 Z M 0 0.03125 "/></clipPath><clipPath id="2e1d6fdd48-1802"><path d="M 1.515625 0.652344 L 0.699219 0.652344 L 0.699219 2.15625 L 1.519531 2.15625 C 2.136719 2.15625 2.457031 1.875 2.457031 1.402344 C 2.457031 0.929688 2.136719 0.652344 1.519531 0.652344 M 2.46875 3.832031 L 1.699219 2.730469 C 1.648438 2.734375 1.597656 2.734375 1.550781 2.734375 L 0.699219 2.734375 L 0.699219 3.832031 L 0 3.832031 L 0 0.0585938 L 1.550781 0.0585938 C 2.542969 0.0585938 3.160156 0.5625 3.160156 1.398438 C 3.160156 1.972656 2.871094 2.390625 2.355469 2.589844 L 3.222656 3.828125 Z M 2.46875 3.832031 "/></clipPath><clipPath id="d848398233-1803"><rect x="0" width="4" y="0" height="4"/></clipPath><clipPath id="dd64de26eb-1804"><path d="M 98.9375 59.058594 L 101.695312 59.058594 L 101.695312 59.644531 L 98.9375 59.644531 Z M 98.9375 59.644531 L 99.636719 59.644531 L 99.636719 60.628906 L 98.9375 60.628906 Z M 98.9375 60.628906 L 101.460938 60.628906 L 101.460938 61.207031 L 98.9375 61.207031 Z M 98.9375 61.207031 L 99.636719 61.207031 L 99.636719 62.246094 L 98.9375 62.246094 Z M 98.9375 62.246094 L 101.769531 62.246094 L 101.769531 62.832031 L 98.9375 62.832031 Z M 98.9375 62.246094 "/></clipPath><clipPath id="6e82067842-1805"><path d="M 0.9375 0.0585938 L 3.695312 0.0585938 L 3.695312 0.644531 L 0.9375 0.644531 Z M 0.9375 0.644531 L 1.636719 0.644531 L 1.636719 1.628906 L 0.9375 1.628906 Z M 0.9375 1.628906 L 3.460938 1.628906 L 3.460938 2.207031 L 0.9375 2.207031 Z M 0.9375 2.207031 L 1.636719 2.207031 L 1.636719 3.246094 L 0.9375 3.246094 Z M 0.9375 3.246094 L 3.769531 3.246094 L 3.769531 3.832031 L 0.9375 3.832031 Z M 0.9375 3.246094 "/></clipPath><clipPath id="b20adb2a0c-1806"><rect x="0" width="4" y="0" height="4"/></clipPath><clipPath id="4a8d4dcbd8-1807"><path d="M 102.53125 59.03125 L 106.273438 59.03125 L 106.273438 62.828125 L 102.53125 62.828125 Z M 102.53125 59.03125 "/></clipPath><clipPath id="6f2e5636ec-1808"><path d="M 104.167969 62.238281 C 105.011719 62.238281 105.550781 61.726562 105.550781 60.945312 C 105.550781 60.160156 105.007812 59.648438 104.167969 59.648438 L 103.25 59.648438 L 103.25 62.234375 Z M 102.550781 59.058594 L 104.199219 59.058594 C 105.425781 59.058594 106.257812 59.8125 106.257812 60.945312 C 106.257812 62.074219 105.425781 62.828125 104.199219 62.828125 L 102.550781 62.828125 Z M 102.550781 59.058594 "/></clipPath><clipPath id="6f2c1f9e84-1809"><path d="M 0.53125 0.03125 L 4.269531 0.03125 L 4.269531 3.828125 L 0.53125 3.828125 Z M 0.53125 0.03125 "/></clipPath><clipPath id="a358429152-1810"><path d="M 2.167969 3.238281 C 3.011719 3.238281 3.550781 2.726562 3.550781 1.945312 C 3.550781 1.160156 3.007812 0.648438 2.167969 0.648438 L 1.25 0.648438 L 1.25 3.234375 Z M 0.550781 0.0585938 L 2.199219 0.0585938 C 3.425781 0.0585938 4.257812 0.8125 4.257812 1.945312 C 4.257812 3.074219 3.425781 3.828125 2.199219 3.828125 L 0.550781 3.828125 Z M 0.550781 0.0585938 "/></clipPath><clipPath id="0072b1b7e3-1811"><rect x="0" width="5" y="0" height="4"/></clipPath><clipPath id="a55c9b2c15-1812"><path d="M 108.476562 59.03125 L 111.867188 59.03125 L 111.867188 62.859375 L 108.476562 62.859375 Z M 108.476562 59.03125 "/></clipPath><clipPath id="8ee01f6a8f-1813"><path d="M 111.136719 61.738281 C 111.136719 61.359375 110.851562 61.195312 110.324219 61.195312 L 109.191406 61.195312 L 109.191406 62.285156 L 110.324219 62.285156 C 110.851562 62.285156 111.136719 62.117188 111.136719 61.738281 M 109.191406 59.609375 L 109.191406 60.648438 L 110.179688 60.648438 C 110.664062 60.648438 110.941406 60.476562 110.941406 60.132812 C 110.941406 59.78125 110.664062 59.609375 110.179688 59.609375 Z M 111.84375 61.8125 C 111.84375 62.457031 111.339844 62.832031 110.367188 62.832031 L 108.492188 62.832031 L 108.492188 59.058594 L 110.261719 59.058594 C 111.167969 59.058594 111.652344 59.441406 111.652344 60.039062 C 111.652344 60.425781 111.457031 60.710938 111.167969 60.871094 C 111.570312 61 111.847656 61.316406 111.847656 61.808594 "/></clipPath><clipPath id="a831e85c38-1814"><path d="M 0.476562 0.03125 L 3.867188 0.03125 L 3.867188 3.859375 L 0.476562 3.859375 Z M 0.476562 0.03125 "/></clipPath><clipPath id="50b5805ec4-1815"><path d="M 3.136719 2.738281 C 3.136719 2.359375 2.851562 2.195312 2.324219 2.195312 L 1.191406 2.195312 L 1.191406 3.285156 L 2.324219 3.285156 C 2.851562 3.285156 3.136719 3.117188 3.136719 2.738281 M 1.191406 0.609375 L 1.191406 1.648438 L 2.179688 1.648438 C 2.664062 1.648438 2.941406 1.476562 2.941406 1.132812 C 2.941406 0.78125 2.664062 0.609375 2.179688 0.609375 Z M 3.84375 2.8125 C 3.84375 3.457031 3.339844 3.832031 2.367188 3.832031 L 0.492188 3.832031 L 0.492188 0.0585938 L 2.261719 0.0585938 C 3.167969 0.0585938 3.652344 0.441406 3.652344 1.039062 C 3.652344 1.425781 3.457031 1.710938 3.167969 1.871094 C 3.570312 2 3.847656 2.316406 3.847656 2.808594 "/></clipPath><clipPath id="d4508e7aa6-1816"><rect x="0" width="4" y="0" height="4"/></clipPath><clipPath id="f8a730882f-1817"><path d="M 111.953125 59.03125 L 115.636719 59.03125 L 115.636719 62.859375 L 111.953125 62.859375 Z M 111.953125 59.03125 "/></clipPath><clipPath id="a853a76467-1818"><path d="M 114.140625 61.503906 L 114.140625 62.832031 L 113.441406 62.832031 L 113.441406 61.511719 L 111.957031 59.0625 L 112.707031 59.0625 L 113.8125 60.902344 L 114.925781 59.0625 L 115.617188 59.0625 Z M 114.140625 61.503906 "/></clipPath><clipPath id="dfafa7bd6c-1819"><path d="M 0.953125 0.03125 L 4.636719 0.03125 L 4.636719 3.859375 L 0.953125 3.859375 Z M 0.953125 0.03125 "/></clipPath><clipPath id="8e63664d96-1820"><path d="M 3.140625 2.503906 L 3.140625 3.832031 L 2.441406 3.832031 L 2.441406 2.511719 L 0.957031 0.0625 L 1.707031 0.0625 L 2.8125 1.902344 L 3.925781 0.0625 L 4.617188 0.0625 Z M 3.140625 2.503906 "/></clipPath><clipPath id="e2b37cb9d8-1821"><rect x="0" width="5" y="0" height="4"/></clipPath><clipPath id="25953191c2-1822"><path d="M 160 18.308594 L 187.65625 18.308594 L 187.65625 51 L 160 51 Z M 160 18.308594 "/></clipPath><clipPath id="b44c1f3448-1823"><path d="M 164.835938 18.335938 L 164.855469 23.488281 L 178.714844 23.488281 L 176.925781 24.765625 L 176.542969 25.0625 C 176.324219 25.226562 176.171875 25.347656 176.003906 25.464844 C 175.046875 26.136719 174.082031 26.800781 173.121094 27.460938 C 170.925781 28.96875 168.65625 30.527344 166.519531 32.164062 C 164.65625 33.585938 163.152344 35.039062 162.054688 36.472656 C 160.097656 39.027344 159.582031 42.246094 160.683594 45.085938 C 161.773438 47.90625 164.210938 49.886719 167.371094 50.511719 C 168.957031 50.832031 170.605469 50.894531 172.59375 50.894531 C 172.929688 50.894531 175.914062 50.886719 176.925781 50.886719 C 177.089844 50.886719 177.203125 50.886719 177.238281 50.886719 L 177.230469 45.746094 C 176.753906 45.746094 173.277344 45.738281 172.746094 45.738281 C 172.085938 45.738281 171.429688 45.742188 170.769531 45.75 L 170.691406 45.75 C 168.738281 45.75 166.367188 44.832031 165.949219 42.914062 C 165.699219 41.761719 165.832031 40.855469 166.324219 39.703125 C 166.828125 38.519531 168.269531 37.460938 169.238281 36.753906 C 171.683594 34.976562 174.203125 32.910156 176.640625 31.21875 C 177.457031 30.652344 178.277344 30.082031 179.089844 29.511719 C 179.277344 29.382812 182.371094 27.304688 182.371094 27.304688 L 182.371094 45.433594 L 187.519531 45.433594 L 187.519531 24.742188 C 187.496094 21.199219 184.566406 18.335938 180.953125 18.335938 Z M 164.835938 18.335938 "/></clipPath><clipPath id="ad76efc027-1824"><path d="M 0 0.308594 L 27.648438 0.308594 L 27.648438 32.980469 L 0 32.980469 Z M 0 0.308594 "/></clipPath><clipPath id="38d0885296-1825"><path d="M 4.835938 0.335938 L 4.855469 5.488281 L 18.714844 5.488281 L 16.925781 6.765625 L 16.542969 7.0625 C 16.324219 7.226562 16.171875 7.347656 16.003906 7.464844 C 15.046875 8.136719 14.082031 8.800781 13.121094 9.460938 C 10.925781 10.96875 8.65625 12.527344 6.519531 14.164062 C 4.65625 15.585938 3.152344 17.039062 2.054688 18.472656 C 0.0976562 21.027344 -0.417969 24.246094 0.683594 27.085938 C 1.773438 29.90625 4.210938 31.886719 7.371094 32.511719 C 8.957031 32.832031 10.605469 32.894531 12.59375 32.894531 C 12.929688 32.894531 15.914062 32.886719 16.925781 32.886719 C 17.089844 32.886719 17.203125 32.886719 17.238281 32.886719 L 17.230469 27.746094 C 16.753906 27.746094 13.277344 27.738281 12.746094 27.738281 C 12.085938 27.738281 11.429688 27.742188 10.769531 27.75 L 10.691406 27.75 C 8.738281 27.75 6.367188 26.832031 5.949219 24.914062 C 5.699219 23.761719 5.832031 22.855469 6.324219 21.703125 C 6.828125 20.519531 8.269531 19.460938 9.238281 18.753906 C 11.683594 16.976562 14.203125 14.910156 16.640625 13.21875 C 17.457031 12.652344 18.277344 12.082031 19.089844 11.511719 C 19.277344 11.382812 22.371094 9.304688 22.371094 9.304688 L 22.371094 27.433594 L 27.519531 27.433594 L 27.519531 6.742188 C 27.496094 3.199219 24.566406 0.335938 20.953125 0.335938 Z M 4.835938 0.335938 "/></clipPath><clipPath id="22cfb20a60-1826"><rect x="0" width="28" y="0" height="33"/></clipPath><clipPath id="183e2fe493-1827"><path d="M 54.253906 17.273438 L 90.527344 17.273438 L 90.527344 51.917969 L 54.253906 51.917969 Z M 54.253906 17.273438 "/></clipPath><clipPath id="e4e413af74-1828"><path d="M 72.15625 22.5625 C 76.035156 22.5625 79.640625 24.460938 81.859375 27.863281 L 60.347656 36.496094 C 59.230469 30.933594 61.972656 25.691406 67.453125 23.492188 C 69.015625 22.863281 70.605469 22.5625 72.152344 22.5625 Z M 72.589844 17.414062 C 70.269531 17.414062 67.875 17.867188 65.507812 18.816406 C 56.230469 22.539062 52.011719 32.175781 55.753906 41.171875 C 58.539062 47.867188 64.722656 51.78125 71.605469 51.78125 C 73.96875 51.78125 76.417969 51.316406 78.835938 50.347656 C 86.066406 47.445312 90.410156 41.144531 90.40625 34.378906 L 84.621094 36.699219 C 84.128906 40.417969 81.230469 43.925781 76.949219 45.644531 C 75.285156 46.3125 73.621094 46.632812 72.023438 46.632812 C 68.015625 46.632812 64.414062 44.621094 62.183594 41.070312 L 89.175781 30.238281 C 88.988281 29.625 88.65625 28.648438 88.414062 28.058594 C 85.617188 21.347656 79.429688 17.414062 72.589844 17.414062 Z M 72.589844 17.414062 "/></clipPath><clipPath id="ed0ec22e1d-1829"><path d="M 0.253906 0.273438 L 36.472656 0.273438 L 36.472656 34.917969 L 0.253906 34.917969 Z M 0.253906 0.273438 "/></clipPath><clipPath id="3d266a0371-1830"><path d="M 18.15625 5.5625 C 22.035156 5.5625 25.640625 7.460938 27.859375 10.863281 L 6.347656 19.496094 C 5.230469 13.933594 7.972656 8.691406 13.453125 6.492188 C 15.015625 5.863281 16.605469 5.5625 18.152344 5.5625 Z M 18.589844 0.414062 C 16.269531 0.414062 13.875 0.867188 11.507812 1.816406 C 2.230469 5.539062 -1.988281 15.175781 1.753906 24.171875 C 4.539062 30.867188 10.722656 34.78125 17.605469 34.78125 C 19.96875 34.78125 22.417969 34.316406 24.835938 33.347656 C 32.066406 30.445312 36.410156 24.144531 36.40625 17.378906 L 30.621094 19.699219 C 30.128906 23.417969 27.230469 26.925781 22.949219 28.644531 C 21.285156 29.3125 19.621094 29.632812 18.023438 29.632812 C 14.015625 29.632812 10.414062 27.621094 8.183594 24.070312 L 35.175781 13.238281 C 34.988281 12.625 34.65625 11.648438 34.414062 11.058594 C 31.617188 4.347656 25.429688 0.414062 18.589844 0.414062 Z M 18.589844 0.414062 "/></clipPath><clipPath id="040757a98a-1831"><rect x="0" width="37" y="0" height="35"/></clipPath><clipPath id="5f5e9410b5-1832"><path d="M 88.601562 18.308594 L 120.4375 18.308594 L 120.4375 51 L 88.601562 51 Z M 88.601562 18.308594 "/></clipPath><clipPath id="76a3f58241-1833"><path d="M 117.839844 31.484375 L 109.050781 50.921875 L 103.195312 50.921875 L 88.613281 18.3125 L 94.996094 18.3125 L 106.191406 44.332031 L 112.441406 30.332031 C 114.394531 25.664062 115.109375 21.699219 114.328125 18.3125 L 120.054688 18.3125 C 120.835938 21.957031 120.117188 26.304688 117.84375 31.480469 "/></clipPath><clipPath id="c213fa50c2-1834"><path d="M 0.601562 0.308594 L 32.4375 0.308594 L 32.4375 32.980469 L 0.601562 32.980469 Z M 0.601562 0.308594 "/></clipPath><clipPath id="5a6fc2f812-1835"><path d="M 29.839844 13.484375 L 21.050781 32.921875 L 15.195312 32.921875 L 0.613281 0.3125 L 6.996094 0.3125 L 18.191406 26.332031 L 24.441406 12.332031 C 26.394531 7.664062 27.109375 3.699219 26.328125 0.3125 L 32.054688 0.3125 C 32.835938 3.957031 32.117188 8.304688 29.84375 13.480469 "/></clipPath><clipPath id="0d422adec4-1836"><rect x="0" width="33" y="0" height="33"/></clipPath><clipPath id="b825666b09-1837"><path d="M 121.621094 17.421875 L 157.15625 17.421875 L 157.15625 51.769531 L 121.621094 51.769531 Z M 121.621094 17.421875 "/></clipPath><clipPath id="52b18f8114-1838"><path d="M 121.746094 34.617188 C 121.746094 24.898438 129.363281 17.546875 139.449219 17.546875 C 149.476562 17.546875 157.09375 24.902344 157.09375 34.617188 C 157.09375 44.332031 149.476562 51.683594 139.449219 51.683594 C 129.363281 51.683594 121.746094 44.332031 121.746094 34.617188 M 151.296875 34.617188 C 151.296875 27.902344 146.21875 22.851562 139.449219 22.851562 C 132.613281 22.851562 127.535156 27.902344 127.535156 34.617188 C 127.535156 41.328125 132.613281 46.378906 139.449219 46.378906 C 146.21875 46.378906 151.296875 41.328125 151.296875 34.617188 "/></clipPath><clipPath id="7cab83a654-1839"><path d="M 0.621094 0.472656 L 36.15625 0.472656 L 36.15625 34.699219 L 0.621094 34.699219 Z M 0.621094 0.472656 "/></clipPath><clipPath id="5bd9cbc897-1840"><path d="M 0.746094 17.617188 C 0.746094 7.898438 8.363281 0.546875 18.449219 0.546875 C 28.476562 0.546875 36.09375 7.902344 36.09375 17.617188 C 36.09375 27.332031 28.476562 34.683594 18.449219 34.683594 C 8.363281 34.683594 0.746094 27.332031 0.746094 17.617188 M 30.296875 17.617188 C 30.296875 10.902344 25.21875 5.851562 18.449219 5.851562 C 11.613281 5.851562 6.535156 10.902344 6.535156 17.617188 C 6.535156 24.328125 11.613281 29.378906 18.449219 29.378906 C 25.21875 29.378906 30.296875 24.328125 30.296875 17.617188 "/></clipPath><clipPath id="56f89a2dcd-1841"><rect x="0" width="37" y="0" height="35"/></clipPath><clipPath id="e0c7ad3ae3-1842"><path d="M 179.816406 61.355469 L 187.5625 61.355469 L 187.5625 71.125 L 179.816406 71.125 Z M 179.816406 61.355469 "/></clipPath><clipPath id="9e756f7b82-1843"><path d="M 183.222656 63.207031 C 183.464844 63.207031 183.710938 63.234375 183.953125 63.304688 C 184.253906 63.394531 184.484375 63.566406 184.570312 63.878906 C 184.699219 64.351562 184.472656 64.761719 183.976562 64.960938 C 183.644531 65.085938 183.304688 65.113281 182.957031 65.121094 C 182.890625 65.121094 182.832031 65.121094 182.769531 65.121094 C 182.660156 65.121094 182.550781 65.121094 182.4375 65.121094 L 182.4375 63.269531 C 182.699219 63.238281 182.960938 63.207031 183.21875 63.207031 Z M 182.949219 66.925781 C 183.261719 66.925781 183.566406 66.933594 183.871094 67.019531 C 183.992188 67.050781 184.113281 67.097656 184.226562 67.15625 C 184.597656 67.339844 184.789062 67.636719 184.792969 68.046875 C 184.792969 68.480469 184.609375 68.8125 184.214844 69.027344 C 183.945312 69.171875 183.648438 69.230469 183.34375 69.242188 C 183.292969 69.242188 183.234375 69.246094 183.183594 69.246094 C 182.960938 69.246094 182.738281 69.234375 182.515625 69.230469 C 182.488281 69.230469 182.464844 69.222656 182.441406 69.21875 L 182.441406 66.925781 C 182.488281 66.925781 182.539062 66.925781 182.585938 66.925781 C 182.707031 66.925781 182.832031 66.921875 182.953125 66.921875 Z M 183.5 61.390625 C 183.488281 61.390625 183.472656 61.390625 183.457031 61.390625 C 182.710938 61.394531 181.96875 61.40625 181.230469 61.441406 C 180.808594 61.460938 180.386719 61.527344 179.960938 61.566406 C 179.867188 61.578125 179.84375 61.617188 179.84375 61.703125 C 179.847656 64.746094 179.847656 67.78125 179.847656 70.820312 C 179.847656 70.835938 179.851562 70.851562 179.847656 70.867188 C 179.839844 70.921875 179.871094 70.941406 179.921875 70.949219 C 180.164062 70.976562 180.40625 71.027344 180.644531 71.035156 C 181.316406 71.066406 181.988281 71.09375 182.664062 71.101562 C 182.691406 71.101562 182.714844 71.101562 182.742188 71.101562 C 183.507812 71.101562 184.273438 71.035156 185.023438 70.859375 C 185.570312 70.730469 186.089844 70.539062 186.527344 70.175781 C 187.167969 69.648438 187.511719 69 187.519531 68.234375 L 187.519531 68.171875 C 187.519531 68.027344 187.503906 67.875 187.476562 67.722656 C 187.332031 66.875 186.800781 66.316406 186.011719 65.976562 C 185.882812 65.917969 185.75 65.878906 185.59375 65.824219 C 185.644531 65.800781 185.675781 65.785156 185.707031 65.769531 C 185.878906 65.683594 186.0625 65.605469 186.226562 65.503906 C 187.542969 64.691406 187.4375 63.015625 186.464844 62.214844 C 186.0625 61.882812 185.597656 61.691406 185.09375 61.566406 C 184.570312 61.4375 184.03125 61.394531 183.492188 61.394531 Z M 183.5 61.390625 "/></clipPath><clipPath id="8df666b46d-1844"><path d="M 0.816406 0.355469 L 8.5625 0.355469 L 8.5625 10.125 L 0.816406 10.125 Z M 0.816406 0.355469 "/></clipPath><clipPath id="ab150e63e2-1845"><path d="M 4.222656 2.207031 C 4.464844 2.207031 4.710938 2.234375 4.953125 2.304688 C 5.253906 2.394531 5.484375 2.566406 5.570312 2.878906 C 5.699219 3.351562 5.472656 3.761719 4.976562 3.960938 C 4.644531 4.085938 4.304688 4.113281 3.957031 4.121094 C 3.890625 4.121094 3.832031 4.121094 3.769531 4.121094 C 3.660156 4.121094 3.550781 4.121094 3.4375 4.121094 L 3.4375 2.269531 C 3.699219 2.238281 3.960938 2.207031 4.21875 2.207031 Z M 3.949219 5.925781 C 4.261719 5.925781 4.566406 5.933594 4.871094 6.019531 C 4.992188 6.050781 5.113281 6.097656 5.226562 6.15625 C 5.597656 6.339844 5.789062 6.636719 5.792969 7.046875 C 5.792969 7.480469 5.609375 7.8125 5.214844 8.027344 C 4.945312 8.171875 4.648438 8.230469 4.34375 8.242188 C 4.292969 8.242188 4.234375 8.246094 4.183594 8.246094 C 3.960938 8.246094 3.738281 8.234375 3.515625 8.230469 C 3.488281 8.230469 3.464844 8.222656 3.441406 8.21875 L 3.441406 5.925781 C 3.488281 5.925781 3.539062 5.925781 3.585938 5.925781 C 3.707031 5.925781 3.832031 5.921875 3.953125 5.921875 Z M 4.5 0.390625 C 4.488281 0.390625 4.472656 0.390625 4.457031 0.390625 C 3.710938 0.394531 2.96875 0.40625 2.230469 0.441406 C 1.808594 0.460938 1.386719 0.527344 0.960938 0.566406 C 0.867188 0.578125 0.84375 0.617188 0.84375 0.703125 C 0.847656 3.746094 0.847656 6.78125 0.847656 9.820312 C 0.847656 9.835938 0.851562 9.851562 0.847656 9.867188 C 0.839844 9.921875 0.871094 9.941406 0.921875 9.949219 C 1.164062 9.976562 1.40625 10.027344 1.644531 10.035156 C 2.316406 10.066406 2.988281 10.09375 3.664062 10.101562 C 3.691406 10.101562 3.714844 10.101562 3.742188 10.101562 C 4.507812 10.101562 5.273438 10.035156 6.023438 9.859375 C 6.570312 9.730469 7.089844 9.539062 7.527344 9.175781 C 8.167969 8.648438 8.511719 8 8.519531 7.234375 L 8.519531 7.171875 C 8.519531 7.027344 8.503906 6.875 8.476562 6.722656 C 8.332031 5.875 7.800781 5.316406 7.011719 4.976562 C 6.882812 4.917969 6.75 4.878906 6.59375 4.824219 C 6.644531 4.800781 6.675781 4.785156 6.707031 4.769531 C 6.878906 4.683594 7.0625 4.605469 7.226562 4.503906 C 8.542969 3.691406 8.4375 2.015625 7.464844 1.214844 C 7.0625 0.882812 6.597656 0.691406 6.09375 0.566406 C 5.570312 0.4375 5.03125 0.394531 4.492188 0.394531 Z M 4.5 0.390625 "/></clipPath><clipPath id="039aa3952b-1846"><rect x="0" width="9" y="0" height="11"/></clipPath><clipPath id="74136d7e4d-1847"><path d="M 159.082031 61.285156 L 168.714844 61.285156 L 168.714844 71.195312 L 159.082031 71.195312 Z M 159.082031 61.285156 "/></clipPath><clipPath id="d956cbc6ce-1848"><path d="M 163.878906 71.144531 C 162.996094 71.144531 162.210938 70.992188 161.480469 70.605469 C 160.53125 70.09375 159.878906 69.324219 159.507812 68.339844 C 158.984375 66.960938 158.972656 65.566406 159.523438 64.195312 C 160.148438 62.632812 161.328125 61.679688 163.019531 61.378906 C 164.003906 61.207031 164.972656 61.277344 165.90625 61.648438 C 167.039062 62.101562 167.808594 62.910156 168.269531 64.011719 C 168.546875 64.671875 168.667969 65.359375 168.671875 66.070312 C 168.675781 66.933594 168.554688 67.773438 168.183594 68.566406 C 167.570312 69.902344 166.507812 70.703125 165.058594 71.023438 C 164.652344 71.109375 164.238281 71.144531 163.882812 71.148438 M 161.859375 66.246094 C 161.890625 66.527344 161.902344 66.8125 161.949219 67.09375 C 162.03125 67.605469 162.207031 68.085938 162.542969 68.492188 C 163.171875 69.246094 164.304688 69.359375 165.039062 68.734375 C 165.390625 68.433594 165.59375 68.046875 165.730469 67.617188 C 165.957031 66.882812 165.980469 66.128906 165.851562 65.375 C 165.773438 64.902344 165.621094 64.460938 165.332031 64.070312 C 164.839844 63.394531 164.019531 63.140625 163.265625 63.4375 C 162.808594 63.617188 162.5 63.957031 162.28125 64.378906 C 161.972656 64.964844 161.882812 65.597656 161.859375 66.25 "/></clipPath><clipPath id="2a91ced69e-1849"><path d="M 0.0820312 0.285156 L 9.714844 0.285156 L 9.714844 10.195312 L 0.0820312 10.195312 Z M 0.0820312 0.285156 "/></clipPath><clipPath id="31580b65fa-1850"><path d="M 4.878906 10.144531 C 3.996094 10.144531 3.210938 9.992188 2.480469 9.605469 C 1.53125 9.09375 0.878906 8.324219 0.507812 7.339844 C -0.015625 5.960938 -0.0273438 4.566406 0.523438 3.195312 C 1.148438 1.632812 2.328125 0.679688 4.019531 0.378906 C 5.003906 0.207031 5.972656 0.277344 6.90625 0.648438 C 8.039062 1.101562 8.808594 1.910156 9.269531 3.011719 C 9.546875 3.671875 9.667969 4.359375 9.671875 5.070312 C 9.675781 5.933594 9.554688 6.773438 9.183594 7.566406 C 8.570312 8.902344 7.507812 9.703125 6.058594 10.023438 C 5.652344 10.109375 5.238281 10.144531 4.882812 10.148438 M 2.859375 5.246094 C 2.890625 5.527344 2.902344 5.8125 2.949219 6.09375 C 3.03125 6.605469 3.207031 7.085938 3.542969 7.492188 C 4.171875 8.246094 5.304688 8.359375 6.039062 7.734375 C 6.390625 7.433594 6.59375 7.046875 6.730469 6.617188 C 6.957031 5.882812 6.980469 5.128906 6.851562 4.375 C 6.773438 3.902344 6.621094 3.460938 6.332031 3.070312 C 5.839844 2.394531 5.019531 2.140625 4.265625 2.4375 C 3.808594 2.617188 3.5 2.957031 3.28125 3.378906 C 2.972656 3.964844 2.882812 4.597656 2.859375 5.25 "/></clipPath><clipPath id="34b9149bf8-1851"><rect x="0" width="10" y="0" height="11"/></clipPath><clipPath id="dba41e93da-1852"><path d="M 169.484375 61.285156 L 179.117188 61.285156 L 179.117188 71.195312 L 169.484375 71.195312 Z M 169.484375 61.285156 "/></clipPath><clipPath id="535c4423bb-1853"><path d="M 174.273438 71.144531 C 173.308594 71.144531 172.457031 70.960938 171.679688 70.496094 C 170.824219 69.976562 170.246094 69.238281 169.886719 68.324219 C 169.582031 67.542969 169.480469 66.738281 169.53125 65.90625 C 169.578125 65.09375 169.777344 64.320312 170.183594 63.609375 C 170.894531 62.363281 171.976562 61.617188 173.40625 61.371094 C 174.378906 61.207031 175.339844 61.269531 176.265625 61.628906 C 177.367188 62.058594 178.136719 62.832031 178.609375 63.890625 C 178.992188 64.746094 179.105469 65.644531 179.050781 66.566406 C 179.003906 67.28125 178.859375 67.976562 178.546875 68.625 C 177.921875 69.925781 176.871094 70.707031 175.445312 71.015625 C 175.039062 71.105469 174.625 71.136719 174.273438 71.144531 M 172.25 66.234375 C 172.28125 66.523438 172.296875 66.816406 172.34375 67.101562 C 172.425781 67.605469 172.601562 68.070312 172.925781 68.472656 C 173.578125 69.28125 174.808594 69.328125 175.492188 68.667969 C 175.792969 68.382812 175.984375 68.03125 176.109375 67.644531 C 176.34375 66.898438 176.375 66.140625 176.246094 65.371094 C 176.167969 64.898438 176.015625 64.457031 175.734375 64.066406 C 175.242188 63.382812 174.421875 63.128906 173.664062 63.425781 C 173.207031 63.605469 172.898438 63.945312 172.679688 64.363281 C 172.371094 64.945312 172.28125 65.578125 172.253906 66.230469 "/></clipPath><clipPath id="052795bc3c-1854"><path d="M 0.484375 0.285156 L 10.117188 0.285156 L 10.117188 10.195312 L 0.484375 10.195312 Z M 0.484375 0.285156 "/></clipPath><clipPath id="cf5e0670a3-1855"><path d="M 5.273438 10.144531 C 4.308594 10.144531 3.457031 9.960938 2.679688 9.496094 C 1.824219 8.976562 1.246094 8.238281 0.886719 7.324219 C 0.582031 6.542969 0.480469 5.738281 0.53125 4.90625 C 0.578125 4.09375 0.777344 3.320312 1.183594 2.609375 C 1.894531 1.363281 2.976562 0.617188 4.40625 0.371094 C 5.378906 0.207031 6.339844 0.269531 7.265625 0.628906 C 8.367188 1.058594 9.136719 1.832031 9.609375 2.890625 C 9.992188 3.746094 10.105469 4.644531 10.050781 5.566406 C 10.003906 6.28125 9.859375 6.976562 9.546875 7.625 C 8.921875 8.925781 7.871094 9.707031 6.445312 10.015625 C 6.039062 10.105469 5.625 10.136719 5.273438 10.144531 M 3.25 5.234375 C 3.28125 5.523438 3.296875 5.816406 3.34375 6.101562 C 3.425781 6.605469 3.601562 7.070312 3.925781 7.472656 C 4.578125 8.28125 5.808594 8.328125 6.492188 7.667969 C 6.792969 7.382812 6.984375 7.03125 7.109375 6.644531 C 7.34375 5.898438 7.375 5.140625 7.246094 4.371094 C 7.167969 3.898438 7.015625 3.457031 6.734375 3.066406 C 6.242188 2.382812 5.421875 2.128906 4.664062 2.425781 C 4.207031 2.605469 3.898438 2.945312 3.679688 3.363281 C 3.371094 3.945312 3.28125 4.578125 3.253906 5.230469 "/></clipPath><clipPath id="d4c90e430b-1856"><rect x="0" width="11" y="0" height="11"/></clipPath><clipPath id="97a2829975-1857"><path d="M 138.90625 61.285156 L 145.957031 61.285156 L 145.957031 71.195312 L 138.90625 71.195312 Z M 138.90625 61.285156 "/></clipPath><clipPath id="3c949986b6-1858"><path d="M 144.992188 63.828125 C 144.328125 63.558594 143.648438 63.398438 142.933594 63.390625 C 142.644531 63.386719 142.355469 63.40625 142.085938 63.527344 C 141.84375 63.636719 141.671875 63.800781 141.660156 64.078125 C 141.652344 64.285156 141.75 64.4375 141.910156 64.558594 C 142.152344 64.742188 142.4375 64.84375 142.714844 64.957031 C 143.195312 65.152344 143.683594 65.328125 144.15625 65.539062 C 144.621094 65.75 145.027344 66.042969 145.355469 66.433594 C 145.800781 66.960938 145.960938 67.574219 145.925781 68.246094 C 145.894531 68.851562 145.691406 69.394531 145.296875 69.863281 C 144.933594 70.289062 144.476562 70.578125 143.957031 70.777344 C 143.273438 71.039062 142.558594 71.132812 141.832031 71.132812 C 140.933594 71.132812 140.054688 70.992188 139.210938 70.675781 C 139.125 70.640625 139.035156 70.601562 138.9375 70.558594 C 139.097656 69.859375 139.261719 69.160156 139.425781 68.460938 C 139.578125 68.523438 139.722656 68.589844 139.875 68.648438 C 140.585938 68.917969 141.320312 69.0625 142.085938 69.042969 C 142.347656 69.039062 142.601562 69 142.84375 68.894531 C 143.191406 68.738281 143.351562 68.433594 143.261719 68.097656 C 143.207031 67.902344 143.066406 67.769531 142.902344 67.664062 C 142.59375 67.460938 142.246094 67.34375 141.902344 67.222656 C 141.304688 67.015625 140.71875 66.773438 140.203125 66.40625 C 139.726562 66.070312 139.324219 65.660156 139.152344 65.09375 C 138.832031 64.054688 139.070312 63.132812 139.847656 62.359375 C 140.347656 61.855469 140.984375 61.585938 141.679688 61.441406 C 142.371094 61.296875 143.070312 61.269531 143.769531 61.382812 C 144.101562 61.4375 144.417969 61.535156 144.695312 61.734375 C 145.019531 61.96875 145.183594 62.292969 145.207031 62.679688 C 145.230469 63.039062 145.144531 63.496094 144.996094 63.832031 "/></clipPath><clipPath id="73ad513de5-1859"><path d="M 0.90625 0.285156 L 7.957031 0.285156 L 7.957031 10.195312 L 0.90625 10.195312 Z M 0.90625 0.285156 "/></clipPath><clipPath id="b3f10d3668-1860"><path d="M 6.992188 2.828125 C 6.328125 2.558594 5.648438 2.398438 4.933594 2.390625 C 4.644531 2.386719 4.355469 2.40625 4.085938 2.527344 C 3.84375 2.636719 3.671875 2.800781 3.660156 3.078125 C 3.652344 3.285156 3.75 3.4375 3.910156 3.558594 C 4.152344 3.742188 4.4375 3.84375 4.714844 3.957031 C 5.195312 4.152344 5.683594 4.328125 6.15625 4.539062 C 6.621094 4.75 7.027344 5.042969 7.355469 5.433594 C 7.800781 5.960938 7.960938 6.574219 7.925781 7.246094 C 7.894531 7.851562 7.691406 8.394531 7.296875 8.863281 C 6.933594 9.289062 6.476562 9.578125 5.957031 9.777344 C 5.273438 10.039062 4.558594 10.132812 3.832031 10.132812 C 2.933594 10.132812 2.054688 9.992188 1.210938 9.675781 C 1.125 9.640625 1.035156 9.601562 0.9375 9.558594 C 1.097656 8.859375 1.261719 8.160156 1.425781 7.460938 C 1.578125 7.523438 1.722656 7.589844 1.875 7.648438 C 2.585938 7.917969 3.320312 8.0625 4.085938 8.042969 C 4.347656 8.039062 4.601562 8 4.84375 7.894531 C 5.191406 7.738281 5.351562 7.433594 5.261719 7.097656 C 5.207031 6.902344 5.066406 6.769531 4.902344 6.664062 C 4.59375 6.460938 4.246094 6.34375 3.902344 6.222656 C 3.304688 6.015625 2.71875 5.773438 2.203125 5.40625 C 1.726562 5.070312 1.324219 4.660156 1.152344 4.09375 C 0.832031 3.054688 1.070312 2.132812 1.847656 1.359375 C 2.347656 0.855469 2.984375 0.585938 3.679688 0.441406 C 4.371094 0.296875 5.070312 0.269531 5.769531 0.382812 C 6.101562 0.4375 6.417969 0.535156 6.695312 0.734375 C 7.019531 0.96875 7.183594 1.292969 7.207031 1.679688 C 7.230469 2.039062 7.144531 2.496094 6.996094 2.832031 "/></clipPath><clipPath id="b50f5bcc34-1861"><rect x="0" width="8" y="0" height="11"/></clipPath><clipPath id="f5f85b0743-1862"><path d="M 151 61.285156 L 158.734375 61.285156 L 158.734375 71.195312 L 151 71.195312 Z M 151 61.285156 "/></clipPath><clipPath id="e251dd8292-1863"><path d="M 158.371094 68.746094 C 158.414062 68.984375 158.457031 69.214844 158.5 69.441406 C 158.570312 69.839844 158.640625 70.242188 158.71875 70.640625 C 158.734375 70.71875 158.714844 70.75 158.644531 70.777344 C 158.261719 70.925781 157.863281 71 157.457031 71.054688 C 156.890625 71.128906 156.328125 71.148438 155.761719 71.109375 C 154.824219 71.046875 153.933594 70.839844 153.128906 70.34375 C 152.148438 69.742188 151.523438 68.875 151.246094 67.78125 C 150.941406 66.601562 150.988281 65.425781 151.449219 64.292969 C 151.964844 63.015625 152.929688 62.171875 154.222656 61.691406 C 155.070312 61.375 155.949219 61.265625 156.855469 61.324219 C 157.234375 61.347656 157.605469 61.425781 157.945312 61.625 C 158.355469 61.863281 158.570312 62.222656 158.601562 62.691406 C 158.621094 63.054688 158.539062 63.394531 158.402344 63.710938 C 158.117188 63.636719 157.84375 63.554688 157.5625 63.5 C 156.929688 63.371094 156.296875 63.339844 155.671875 63.519531 C 154.6875 63.804688 154.097656 64.445312 153.882812 65.425781 C 153.746094 66.027344 153.761719 66.628906 153.945312 67.222656 C 154.234375 68.15625 154.882812 68.714844 155.84375 68.925781 C 156.320312 69.035156 156.800781 69.023438 157.277344 68.972656 C 157.644531 68.933594 158.011719 68.871094 158.378906 68.742188 "/></clipPath><clipPath id="98e87b9f20-1864"><path d="M 0 0.285156 L 7.734375 0.285156 L 7.734375 10.195312 L 0 10.195312 Z M 0 0.285156 "/></clipPath><clipPath id="700251ceb1-1865"><path d="M 7.371094 7.746094 C 7.414062 7.984375 7.457031 8.214844 7.5 8.441406 C 7.570312 8.839844 7.640625 9.242188 7.71875 9.640625 C 7.734375 9.71875 7.714844 9.75 7.644531 9.777344 C 7.261719 9.925781 6.863281 10 6.457031 10.054688 C 5.890625 10.128906 5.328125 10.148438 4.761719 10.109375 C 3.824219 10.046875 2.933594 9.839844 2.128906 9.34375 C 1.148438 8.742188 0.523438 7.875 0.246094 6.78125 C -0.0585938 5.601562 -0.0117188 4.425781 0.449219 3.292969 C 0.964844 2.015625 1.929688 1.171875 3.222656 0.691406 C 4.070312 0.375 4.949219 0.265625 5.855469 0.324219 C 6.234375 0.347656 6.605469 0.425781 6.945312 0.625 C 7.355469 0.863281 7.570312 1.222656 7.601562 1.691406 C 7.621094 2.054688 7.539062 2.394531 7.402344 2.710938 C 7.117188 2.636719 6.84375 2.554688 6.5625 2.5 C 5.929688 2.371094 5.296875 2.339844 4.671875 2.519531 C 3.6875 2.804688 3.097656 3.445312 2.882812 4.425781 C 2.746094 5.027344 2.761719 5.628906 2.945312 6.222656 C 3.234375 7.15625 3.882812 7.714844 4.84375 7.925781 C 5.320312 8.035156 5.800781 8.023438 6.277344 7.972656 C 6.644531 7.933594 7.011719 7.871094 7.378906 7.742188 "/></clipPath><clipPath id="cdf9ccc05a-1866"><rect x="0" width="8" y="0" height="11"/></clipPath><clipPath id="b0860afd48-1867"><path d="M 147.214844 61.421875 L 149.867188 61.421875 L 149.867188 70.988281 L 147.214844 70.988281 Z M 147.214844 61.421875 "/></clipPath><clipPath id="09cf06c555-1868"><path d="M 147.21875 61.472656 C 147.421875 61.472656 147.628906 61.464844 147.828125 61.472656 C 148.160156 61.488281 148.496094 61.523438 148.816406 61.617188 C 149.480469 61.808594 149.785156 62.1875 149.8125 62.867188 C 149.816406 62.941406 149.816406 63.011719 149.816406 63.082031 C 149.816406 65.675781 149.816406 68.269531 149.816406 70.863281 L 149.816406 70.988281 L 147.21875 70.988281 Z M 147.21875 61.472656 "/></clipPath><clipPath id="50c0b129ce-1869"><path d="M 0.214844 0.421875 L 2.832031 0.421875 L 2.832031 9.988281 L 0.214844 9.988281 Z M 0.214844 0.421875 "/></clipPath><clipPath id="07c1df8939-1870"><path d="M 0.21875 0.472656 C 0.421875 0.472656 0.628906 0.464844 0.828125 0.472656 C 1.160156 0.488281 1.496094 0.523438 1.816406 0.617188 C 2.480469 0.808594 2.785156 1.1875 2.8125 1.867188 C 2.816406 1.941406 2.816406 2.011719 2.816406 2.082031 C 2.816406 4.675781 2.816406 7.269531 2.816406 9.863281 L 2.816406 9.988281 L 0.21875 9.988281 Z M 0.21875 0.472656 "/></clipPath><clipPath id="64ebb9461e-1871"><rect x="0" width="3" y="0" height="10"/></clipPath><clipPath id="60f85c7520-1872"><path d="M 125.085938 65.402344 L 134.089844 65.402344 L 134.089844 73.359375 L 125.085938 73.359375 Z M 125.085938 65.402344 "/></clipPath><clipPath id="4305f61515-1873"><path d="M 125.140625 65.464844 L 129.457031 72.800781 C 129.785156 73.28125 130.175781 73.335938 130.335938 73.335938 C 130.386719 73.335938 130.414062 73.332031 130.414062 73.332031 C 131 73.25 131.234375 72.644531 131.234375 72.644531 L 134.054688 67.828125 L 132.683594 65.492188 Z M 125.140625 65.464844 "/></clipPath><clipPath id="83c0b820b2-1874"><path d="M 0.0859375 0.402344 L 9.089844 0.402344 L 9.089844 8.359375 L 0.0859375 8.359375 Z M 0.0859375 0.402344 "/></clipPath><clipPath id="58bc6fc608-1875"><path d="M 0.140625 0.464844 L 4.457031 7.800781 C 4.785156 8.28125 5.175781 8.335938 5.335938 8.335938 C 5.386719 8.335938 5.414062 8.332031 5.414062 8.332031 C 6 8.25 6.234375 7.644531 6.234375 7.644531 L 9.054688 2.828125 L 7.683594 0.492188 Z M 0.140625 0.464844 "/></clipPath><clipPath id="317a32d955-1876"><rect x="0" width="10" y="0" height="9"/></clipPath><clipPath id="c2ded18eaa-1877"><path d="M 122.015625 59 L 131.71875 59 L 131.71875 67.847656 L 122.015625 67.847656 Z M 122.015625 59 "/></clipPath><clipPath id="137d749503-1878"><path d="M 126.527344 67.8125 L 131.710938 59.011719 L 123.207031 59.011719 C 123.207031 59.011719 122.550781 58.914062 122.191406 59.371094 C 122.191406 59.371094 121.847656 59.78125 122.191406 60.457031 Z M 126.527344 67.8125 "/></clipPath><clipPath id="d6cae0d156-1879"><path d="M 0.015625 0 L 9.71875 0 L 9.71875 8.847656 L 0.015625 8.847656 Z M 0.015625 0 "/></clipPath><clipPath id="6c0ce674d6-1880"><path d="M 4.527344 8.8125 L 9.710938 0.0117188 L 1.207031 0.0117188 C 1.207031 0.0117188 0.550781 -0.0859375 0.191406 0.371094 C 0.191406 0.371094 -0.152344 0.78125 0.191406 1.457031 Z M 4.527344 8.8125 "/></clipPath><clipPath id="cd5bee3122-1881"><rect x="0" width="10" y="0" height="9"/></clipPath><clipPath id="9971fe97da-1882"><path d="M 128.855469 59 L 138.558594 59 L 138.558594 67.847656 L 128.855469 67.847656 Z M 128.855469 59 "/></clipPath><clipPath id="46a9ac79d2-1883"><path d="M 134.054688 67.824219 L 128.871094 59.011719 L 137.375 59.011719 C 137.375 59.011719 138.03125 58.914062 138.390625 59.371094 C 138.390625 59.371094 138.734375 59.78125 138.390625 60.457031 Z M 134.054688 67.824219 "/></clipPath><clipPath id="ebdcd8a849-1884"><path d="M 0.855469 0 L 10.558594 0 L 10.558594 8.847656 L 0.855469 8.847656 Z M 0.855469 0 "/></clipPath><clipPath id="065d944270-1885"><path d="M 6.054688 8.824219 L 0.871094 0.0117188 L 9.375 0.0117188 C 9.375 0.0117188 10.03125 -0.0859375 10.390625 0.371094 C 10.390625 0.371094 10.734375 0.78125 10.390625 1.457031 Z M 6.054688 8.824219 "/></clipPath><clipPath id="c9bf0cc77c-1886"><rect x="0" width="11" y="0" height="9"/></clipPath><clipPath id="be98c72a4f-1887"><path d="M 132.625 65.472656 L 135.488281 65.472656 L 135.488281 67.847656 L 132.625 67.847656 Z M 132.625 65.472656 "/></clipPath><clipPath id="e08ba951cc-1888"><path d="M 132.660156 65.492188 L 134.054688 67.828125 L 135.417969 65.5 Z M 132.660156 65.492188 "/></clipPath><clipPath id="e9cb814980-1889"><path d="M 0.625 0.472656 L 3.46875 0.472656 L 3.46875 2.847656 L 0.625 2.847656 Z M 0.625 0.472656 "/></clipPath><clipPath id="9a446588dd-1890"><path d="M 0.660156 0.492188 L 2.054688 2.828125 L 3.417969 0.5 Z M 0.660156 0.492188 "/></clipPath><clipPath id="b110382c21-1891"><rect x="0" width="4" y="0" height="3"/></clipPath></defs><g id="b09df8c3e5"><g clip-rule="nonzero" clip-path="url(#b29c713e39-1771)"><g clip-rule="nonzero" clip-path="url(#ef84cb17a8-1772)"><g transform="matrix(1,0,0,1,18,30)"><g clip-path="url(#ff8dfc218f-1775)"><g clip-rule="nonzero" clip-path="url(#a03600cead-1773)"><g clip-rule="nonzero" clip-path="url(#ed95054ee0-1774)"><rect x="0" width="29" height="11" y="0" style="fill:#f06722;fill-opacity:1;stroke:none;"/></g></g></g></g></g></g><g clip-rule="nonzero" clip-path="url(#6911fadce6-1776)"><g clip-rule="nonzero" clip-path="url(#7552b4eb51-1777)"><g transform="matrix(1,0,0,1,18,17)"><g clip-path="url(#78dccbad85-1780)"><g clip-rule="nonzero" clip-path="url(#8c22a19bef-1778)"><g clip-rule="nonzero" clip-path="url(#f15c5a33cd-1779)"><rect x="0" width="29" height="17" y="0" style="fill:#f06722;fill-opacity:1;stroke:none;"/></g></g></g></g></g></g><g clip-rule="nonzero" clip-path="url(#b43ea068b4-1781)"><g clip-rule="nonzero" clip-path="url(#39e6e365d9-1782)"><g transform="matrix(1,0,0,1,76,59)"><g clip-path="url(#b94f317a9f-1785)"><g clip-rule="nonzero" clip-path="url(#ee01acd8f1-1783)"><g clip-rule="nonzero" clip-path="url(#7dd03a0d3e-1784)"><rect x="0" width="5" height="4" y="0" style="fill:#ffffff;fill-opacity:1;stroke:none;"/></g></g></g></g></g></g><g clip-rule="nonzero" clip-path="url(#5680885316-1786)"><g clip-rule="nonzero" clip-path="url(#730bb75bb2-1787)"><g transform="matrix(1,0,0,1,80,59)"><g clip-path="url(#1b25797e2b-1790)"><g clip-rule="nonzero" clip-path="url(#cae9f25bc1-1788)"><g clip-rule="nonzero" clip-path="url(#d9a7a13373-1789)"><rect x="0" width="5" height="4" y="0" style="fill:#ffffff;fill-opacity:1;stroke:none;"/></g></g></g></g></g></g><g clip-rule="nonzero" clip-path="url(#d8254249a6-1791)"><g clip-rule="nonzero" clip-path="url(#6d66074d16-1792)"><g transform="matrix(1,0,0,1,84,59)"><g clip-path="url(#d26f791cd6-1795)"><g clip-rule="nonzero" clip-path="url(#d0f25e13a3-1793)"><g clip-rule="nonzero" clip-path="url(#11b8788d0e-1794)"><rect x="0" width="7" height="4" y="0" style="fill:#ffffff;fill-opacity:1;stroke:none;"/></g></g></g></g></g></g><g clip-rule="nonzero" clip-path="url(#5cdbc6cb83-1796)"><g transform="matrix(1,0,0,1,91,59)"><g clip-path="url(#75241bf838-1798)"><g clip-rule="nonzero" clip-path="url(#338515d71c-1797)"><rect x="0" width="4" height="4" y="0" style="fill:#ffffff;fill-opacity:1;stroke:none;"/></g></g></g></g><g clip-rule="nonzero" clip-path="url(#538e12ccf1-1799)"><g clip-rule="nonzero" clip-path="url(#2a66935d63-1800)"><g transform="matrix(1,0,0,1,95,59)"><g clip-path="url(#d848398233-1803)"><g clip-rule="nonzero" clip-path="url(#da204f67a9-1801)"><g clip-rule="nonzero" clip-path="url(#2e1d6fdd48-1802)"><rect x="0" width="4" height="4" y="0" style="fill:#ffffff;fill-opacity:1;stroke:none;"/></g></g></g></g></g></g><g clip-rule="nonzero" clip-path="url(#dd64de26eb-1804)"><g transform="matrix(1,0,0,1,98,59)"><g clip-path="url(#b20adb2a0c-1806)"><g clip-rule="nonzero" clip-path="url(#6e82067842-1805)"><rect x="0" width="4" height="4" y="0" style="fill:#ffffff;fill-opacity:1;stroke:none;"/></g></g></g></g><g clip-rule="nonzero" clip-path="url(#4a8d4dcbd8-1807)"><g clip-rule="nonzero" clip-path="url(#6f2e5636ec-1808)"><g transform="matrix(1,0,0,1,102,59)"><g clip-path="url(#0072b1b7e3-1811)"><g clip-rule="nonzero" clip-path="url(#6f2c1f9e84-1809)"><g clip-rule="nonzero" clip-path="url(#a358429152-1810)"><rect x="0" width="5" height="4" y="0" style="fill:#ffffff;fill-opacity:1;stroke:none;"/></g></g></g></g></g></g><g clip-rule="nonzero" clip-path="url(#a55c9b2c15-1812)"><g clip-rule="nonzero" clip-path="url(#8ee01f6a8f-1813)"><g transform="matrix(1,0,0,1,108,59)"><g clip-path="url(#d4508e7aa6-1816)"><g clip-rule="nonzero" clip-path="url(#a831e85c38-1814)"><g clip-rule="nonzero" clip-path="url(#50b5805ec4-1815)"><rect x="0" width="4" height="4" y="0" style="fill:#ffffff;fill-opacity:1;stroke:none;"/></g></g></g></g></g></g><g clip-rule="nonzero" clip-path="url(#f8a730882f-1817)"><g clip-rule="nonzero" clip-path="url(#a853a76467-1818)"><g transform="matrix(1,0,0,1,111,59)"><g clip-path="url(#e2b37cb9d8-1821)"><g clip-rule="nonzero" clip-path="url(#dfafa7bd6c-1819)"><g clip-rule="nonzero" clip-path="url(#8e63664d96-1820)"><rect x="0" width="5" height="4" y="0" style="fill:#ffffff;fill-opacity:1;stroke:none;"/></g></g></g></g></g></g><g clip-rule="nonzero" clip-path="url(#25953191c2-1822)"><g clip-rule="nonzero" clip-path="url(#b44c1f3448-1823)"><g transform="matrix(1,0,0,1,160,18)"><g clip-path="url(#22cfb20a60-1826)"><g clip-rule="nonzero" clip-path="url(#ad76efc027-1824)"><g clip-rule="nonzero" clip-path="url(#38d0885296-1825)"><rect x="0" width="28" height="33" y="0" style="fill:#ffffff;fill-opacity:1;stroke:none;"/></g></g></g></g></g></g><g clip-rule="nonzero" clip-path="url(#183e2fe493-1827)"><g clip-rule="nonzero" clip-path="url(#e4e413af74-1828)"><g transform="matrix(1,0,0,1,54,17)"><g clip-path="url(#040757a98a-1831)"><g clip-rule="nonzero" clip-path="url(#ed0ec22e1d-1829)"><g clip-rule="nonzero" clip-path="url(#3d266a0371-1830)"><rect x="0" width="37" height="35" y="0" style="fill:#ffffff;fill-opacity:1;stroke:none;"/></g></g></g></g></g></g><g clip-rule="nonzero" clip-path="url(#5f5e9410b5-1832)"><g clip-rule="nonzero" clip-path="url(#76a3f58241-1833)"><g transform="matrix(1,0,0,1,88,18)"><g clip-path="url(#0d422adec4-1836)"><g clip-rule="nonzero" clip-path="url(#c213fa50c2-1834)"><g clip-rule="nonzero" clip-path="url(#5a6fc2f812-1835)"><rect x="0" width="33" height="33" y="0" style="fill:#ffffff;fill-opacity:1;stroke:none;"/></g></g></g></g></g></g><g clip-rule="nonzero" clip-path="url(#b825666b09-1837)"><g clip-rule="nonzero" clip-path="url(#52b18f8114-1838)"><g transform="matrix(1,0,0,1,121,17)"><g clip-path="url(#56f89a2dcd-1841)"><g clip-rule="nonzero" clip-path="url(#7cab83a654-1839)"><g clip-rule="nonzero" clip-path="url(#5bd9cbc897-1840)"><rect x="0" width="37" height="35" y="0" style="fill:#ffffff;fill-opacity:1;stroke:none;"/></g></g></g></g></g></g><g clip-rule="nonzero" clip-path="url(#e0c7ad3ae3-1842)"><g clip-rule="nonzero" clip-path="url(#9e756f7b82-1843)"><g transform="matrix(1,0,0,1,179,61)"><g clip-path="url(#039aa3952b-1846)"><g clip-rule="nonzero" clip-path="url(#8df666b46d-1844)"><g clip-rule="nonzero" clip-path="url(#ab150e63e2-1845)"><rect x="0" width="9" height="11" y="0" style="fill:#ffffff;fill-opacity:1;stroke:none;"/></g></g></g></g></g></g><g clip-rule="nonzero" clip-path="url(#74136d7e4d-1847)"><g clip-rule="nonzero" clip-path="url(#d956cbc6ce-1848)"><g transform="matrix(1,0,0,1,159,61)"><g clip-path="url(#34b9149bf8-1851)"><g clip-rule="nonzero" clip-path="url(#2a91ced69e-1849)"><g clip-rule="nonzero" clip-path="url(#31580b65fa-1850)"><rect x="0" width="10" height="11" y="0" style="fill:#ffffff;fill-opacity:1;stroke:none;"/></g></g></g></g></g></g><g clip-rule="nonzero" clip-path="url(#dba41e93da-1852)"><g clip-rule="nonzero" clip-path="url(#535c4423bb-1853)"><g transform="matrix(1,0,0,1,169,61)"><g clip-path="url(#d4c90e430b-1856)"><g clip-rule="nonzero" clip-path="url(#052795bc3c-1854)"><g clip-rule="nonzero" clip-path="url(#cf5e0670a3-1855)"><rect x="0" width="11" height="11" y="0" style="fill:#ffffff;fill-opacity:1;stroke:none;"/></g></g></g></g></g></g><g clip-rule="nonzero" clip-path="url(#97a2829975-1857)"><g clip-rule="nonzero" clip-path="url(#3c949986b6-1858)"><g transform="matrix(1,0,0,1,138,61)"><g clip-path="url(#b50f5bcc34-1861)"><g clip-rule="nonzero" clip-path="url(#73ad513de5-1859)"><g clip-rule="nonzero" clip-path="url(#b3f10d3668-1860)"><rect x="0" width="8" height="11" y="0" style="fill:#ffffff;fill-opacity:1;stroke:none;"/></g></g></g></g></g></g><g clip-rule="nonzero" clip-path="url(#f5f85b0743-1862)"><g clip-rule="nonzero" clip-path="url(#e251dd8292-1863)"><g transform="matrix(1,0,0,1,151,61)"><g clip-path="url(#cdf9ccc05a-1866)"><g clip-rule="nonzero" clip-path="url(#98e87b9f20-1864)"><g clip-rule="nonzero" clip-path="url(#700251ceb1-1865)"><rect x="0" width="8" height="11" y="0" style="fill:#ffffff;fill-opacity:1;stroke:none;"/></g></g></g></g></g></g><g clip-rule="nonzero" clip-path="url(#b0860afd48-1867)"><g clip-rule="nonzero" clip-path="url(#09cf06c555-1868)"><g transform="matrix(1,0,0,1,147,61)"><g clip-path="url(#64ebb9461e-1871)"><g clip-rule="nonzero" clip-path="url(#50c0b129ce-1869)"><g clip-rule="nonzero" clip-path="url(#07c1df8939-1870)"><rect x="0" width="3" height="10" y="0" style="fill:#ffffff;fill-opacity:1;stroke:none;"/></g></g></g></g></g></g><g clip-rule="nonzero" clip-path="url(#60f85c7520-1872)"><g clip-rule="nonzero" clip-path="url(#4305f61515-1873)"><g transform="matrix(1,0,0,1,125,65)"><g clip-path="url(#317a32d955-1876)"><g clip-rule="nonzero" clip-path="url(#83c0b820b2-1874)"><g clip-rule="nonzero" clip-path="url(#58bc6fc608-1875)"><rect x="0" width="10" height="9" y="0" style="fill:#bed535;fill-opacity:1;stroke:none;"/></g></g></g></g></g></g><g clip-rule="nonzero" clip-path="url(#c2ded18eaa-1877)"><g clip-rule="nonzero" clip-path="url(#137d749503-1878)"><g transform="matrix(1,0,0,1,122,59)"><g clip-path="url(#cd5bee3122-1881)"><g clip-rule="nonzero" clip-path="url(#d6cae0d156-1879)"><g clip-rule="nonzero" clip-path="url(#6c0ce674d6-1880)"><rect x="0" width="10" height="9" y="0" style="fill:#74c044;fill-opacity:1;stroke:none;"/></g></g></g></g></g></g><g clip-rule="nonzero" clip-path="url(#9971fe97da-1882)"><g clip-rule="nonzero" clip-path="url(#46a9ac79d2-1883)"><g transform="matrix(1,0,0,1,128,59)"><g clip-path="url(#c9bf0cc77c-1886)"><g clip-rule="nonzero" clip-path="url(#ebdcd8a849-1884)"><g clip-rule="nonzero" clip-path="url(#065d944270-1885)"><rect x="0" width="11" height="9" y="0" style="fill:#03b19e;fill-opacity:1;stroke:none;"/></g></g></g></g></g></g><g clip-rule="nonzero" clip-path="url(#be98c72a4f-1887)"><g clip-rule="nonzero" clip-path="url(#e08ba951cc-1888)"><g transform="matrix(1,0,0,1,132,65)"><g clip-path="url(#b110382c21-1891)"><g clip-rule="nonzero" clip-path="url(#e9cb814980-1889)"><g clip-rule="nonzero" clip-path="url(#9a446588dd-1890)"><rect x="0" width="4" height="3" y="0" style="fill:#bed535;fill-opacity:1;stroke:none;"/></g></g></g></g></g></g></g></svg>