<svg xmlns="http://www.w3.org/2000/svg" xmlns:xlink="http://www.w3.org/1999/xlink" width="1024" zoomAndPan="magnify" viewBox="0 0 205.92 90.749999" height="1024" preserveAspectRatio="xMidYMid meet" version="1.2" class="injected-svg" data-src="https://firebasestorage.googleapis.com/v0/b/brandkitpro.appspot.com/o/repositories%2Fevoanova%2Flogos%2Flogo-standard.svg?alt=media&amp;token=21643479-0380-4eac-b2e8-2109811f48ed" style="height: 160px; width: 100%" id="svg-84528f"><defs><clipPath id="8dc5c7a000-2013"><path d="M 11.648438 29.625 L 42.21875 29.625 L 42.21875 40.371094 L 11.648438 40.371094 Z M 11.648438 29.625 "/></clipPath><clipPath id="7e32710ab1-2014"><path d="M 41.226562 33.390625 C 38.816406 32.707031 32.398438 30.910156 28.675781 29.875 C 28.109375 29.71875 27.523438 29.636719 26.941406 29.636719 C 26.355469 29.636719 25.769531 29.71875 25.203125 29.875 C 21.480469 30.90625 15.0625 32.707031 12.652344 33.390625 C 12.085938 33.550781 11.699219 34.054688 11.699219 34.632812 L 11.699219 39.050781 C 11.699219 39.898438 12.523438 40.519531 13.359375 40.300781 C 14.164062 40.089844 14.964844 39.878906 15.761719 39.667969 C 18.921875 38.824219 22.085938 37.988281 25.242188 37.140625 C 25.800781 36.992188 26.371094 36.917969 26.941406 36.914062 C 27.515625 36.910156 28.085938 36.992188 28.644531 37.140625 C 31.800781 37.984375 34.964844 38.824219 38.125 39.667969 C 38.921875 39.875 39.722656 40.085938 40.527344 40.300781 C 41.363281 40.519531 42.183594 39.902344 42.183594 39.050781 L 42.183594 34.632812 C 42.183594 34.054688 41.796875 33.550781 41.230469 33.390625 "/></clipPath><clipPath id="31cd46df20-2015"><path d="M 0.648438 0.625 L 31.21875 0.625 L 31.21875 11.371094 L 0.648438 11.371094 Z M 0.648438 0.625 "/></clipPath><clipPath id="2fc7e17e30-2016"><path d="M 30.226562 4.390625 C 27.816406 3.707031 21.398438 1.910156 17.675781 0.875 C 17.109375 0.71875 16.523438 0.636719 15.941406 0.636719 C 15.355469 0.636719 14.769531 0.71875 14.203125 0.875 C 10.480469 1.90625 4.0625 3.707031 1.652344 4.390625 C 1.085938 4.550781 0.699219 5.054688 0.699219 5.632812 L 0.699219 10.050781 C 0.699219 10.898438 1.523438 11.519531 2.359375 11.300781 C 3.164062 11.089844 3.964844 10.878906 4.761719 10.667969 C 7.921875 9.824219 11.085938 8.988281 14.242188 8.140625 C 14.800781 7.992188 15.371094 7.917969 15.941406 7.914062 C 16.515625 7.910156 17.085938 7.992188 17.644531 8.140625 C 20.800781 8.984375 23.964844 9.824219 27.125 10.667969 C 27.921875 10.875 28.722656 11.085938 29.527344 11.300781 C 30.363281 11.519531 31.183594 10.902344 31.183594 10.050781 L 31.183594 5.632812 C 31.183594 5.054688 30.796875 4.550781 30.230469 4.390625 "/></clipPath><clipPath id="37c9ee52e9-2017"><rect x="0" width="32" y="0" height="12"/></clipPath><clipPath id="03c489156b-2018"><path d="M 11.648438 15.777344 L 42.21875 15.777344 L 42.21875 32.394531 L 11.648438 32.394531 Z M 11.648438 15.777344 "/></clipPath><clipPath id="b30195d385-2019"><path d="M 26.9375 15.804688 C 26.160156 15.804688 25.382812 16.085938 24.582031 16.644531 C 20.414062 19.585938 16.25 22.539062 12.078125 25.476562 C 11.789062 25.679688 11.671875 25.894531 11.675781 26.25 C 11.6875 27.644531 11.6875 30.144531 11.6875 31.648438 C 11.6875 32.066406 12.035156 32.371094 12.417969 32.371094 C 12.539062 32.371094 12.660156 32.339844 12.773438 32.277344 C 15.472656 30.808594 21.960938 27.261719 24.710938 25.734375 C 25.464844 25.316406 26.199219 25.113281 26.933594 25.113281 C 26.933594 25.113281 26.9375 25.113281 26.9375 25.113281 C 26.9375 25.113281 26.941406 25.113281 26.941406 25.113281 C 27.671875 25.113281 28.410156 25.316406 29.160156 25.734375 C 31.910156 27.265625 38.402344 30.808594 41.097656 32.277344 C 41.210938 32.34375 41.332031 32.371094 41.453125 32.371094 C 41.835938 32.371094 42.1875 32.066406 42.1875 31.648438 C 42.1875 30.144531 42.1875 27.648438 42.195312 26.25 C 42.199219 25.894531 42.082031 25.683594 41.792969 25.476562 C 37.625 22.539062 33.460938 19.585938 29.292969 16.644531 C 28.492188 16.085938 27.714844 15.804688 26.941406 15.804688 Z M 26.9375 15.804688 "/></clipPath><clipPath id="a91bb1b17d-2020"><path d="M 0.648438 0.796875 L 31.21875 0.796875 L 31.21875 17.394531 L 0.648438 17.394531 Z M 0.648438 0.796875 "/></clipPath><clipPath id="47f417bf10-2021"><path d="M 15.9375 0.804688 C 15.160156 0.804688 14.382812 1.085938 13.582031 1.644531 C 9.414062 4.585938 5.25 7.539062 1.078125 10.476562 C 0.789062 10.679688 0.671875 10.894531 0.675781 11.25 C 0.6875 12.644531 0.6875 15.144531 0.6875 16.648438 C 0.6875 17.066406 1.035156 17.371094 1.417969 17.371094 C 1.539062 17.371094 1.660156 17.339844 1.773438 17.277344 C 4.472656 15.808594 10.960938 12.261719 13.710938 10.734375 C 14.464844 10.316406 15.199219 10.113281 15.933594 10.113281 C 15.933594 10.113281 15.9375 10.113281 15.9375 10.113281 C 15.9375 10.113281 15.941406 10.113281 15.941406 10.113281 C 16.671875 10.113281 17.410156 10.316406 18.160156 10.734375 C 20.910156 12.265625 27.402344 15.808594 30.097656 17.277344 C 30.210938 17.34375 30.332031 17.371094 30.453125 17.371094 C 30.835938 17.371094 31.1875 17.066406 31.1875 16.648438 C 31.1875 15.144531 31.1875 12.648438 31.195312 11.25 C 31.199219 10.894531 31.082031 10.683594 30.792969 10.476562 C 26.625 7.539062 22.460938 4.585938 18.292969 1.644531 C 17.492188 1.085938 16.714844 0.804688 15.941406 0.804688 Z M 15.9375 0.804688 "/></clipPath><clipPath id="3ce8df0068-2022"><rect x="0" width="32" y="0" height="18"/></clipPath><clipPath id="581b0add1a-2023"><path d="M 74.898438 60.117188 L 78.339844 60.117188 L 78.339844 64.25 L 74.898438 64.25 Z M 74.898438 60.117188 "/></clipPath><clipPath id="40be597477-2024"><path d="M 77.546875 61.597656 C 77.546875 61.085938 77.203125 60.785156 76.539062 60.785156 L 75.65625 60.785156 L 75.65625 62.40625 L 76.542969 62.40625 C 77.207031 62.40625 77.550781 62.109375 77.550781 61.597656 M 78.3125 61.597656 C 78.3125 62.496094 77.648438 63.042969 76.578125 63.042969 L 75.65625 63.042969 L 75.65625 64.222656 L 74.898438 64.222656 L 74.898438 60.144531 L 76.574219 60.144531 C 77.644531 60.144531 78.308594 60.691406 78.308594 61.59375 "/></clipPath><clipPath id="6b81741fbc-2025"><path d="M 0.898438 0.117188 L 4.339844 0.117188 L 4.339844 4.25 L 0.898438 4.25 Z M 0.898438 0.117188 "/></clipPath><clipPath id="ae542a8d5f-2026"><path d="M 3.546875 1.597656 C 3.546875 1.085938 3.203125 0.785156 2.539062 0.785156 L 1.65625 0.785156 L 1.65625 2.40625 L 2.542969 2.40625 C 3.207031 2.40625 3.550781 2.109375 3.550781 1.597656 M 4.3125 1.597656 C 4.3125 2.496094 3.648438 3.042969 2.578125 3.042969 L 1.65625 3.042969 L 1.65625 4.222656 L 0.898438 4.222656 L 0.898438 0.144531 L 2.574219 0.144531 C 3.644531 0.144531 4.308594 0.691406 4.308594 1.59375 "/></clipPath><clipPath id="41a991e29d-2027"><rect x="0" width="5" y="0" height="5"/></clipPath><clipPath id="56e725bee6-2028"><path d="M 78.808594 60.085938 L 83.222656 60.085938 L 83.222656 64.3125 L 78.808594 64.3125 Z M 78.808594 60.085938 "/></clipPath><clipPath id="308828b21c-2029"><path d="M 82.460938 62.183594 C 82.460938 61.351562 81.847656 60.753906 81.027344 60.753906 C 80.207031 60.753906 79.59375 61.351562 79.59375 62.183594 C 79.59375 63.019531 80.207031 63.617188 81.027344 63.617188 C 81.847656 63.617188 82.460938 63.019531 82.460938 62.183594 M 78.832031 62.183594 C 78.832031 60.976562 79.761719 60.085938 81.027344 60.085938 C 82.289062 60.085938 83.21875 60.972656 83.21875 62.183594 C 83.21875 63.394531 82.289062 64.28125 81.027344 64.28125 C 79.765625 64.28125 78.832031 63.390625 78.832031 62.183594 "/></clipPath><clipPath id="53d973b6fb-2030"><path d="M 0.808594 0.0859375 L 5.222656 0.0859375 L 5.222656 4.3125 L 0.808594 4.3125 Z M 0.808594 0.0859375 "/></clipPath><clipPath id="b23f62117c-2031"><path d="M 4.460938 2.183594 C 4.460938 1.351562 3.847656 0.753906 3.027344 0.753906 C 2.207031 0.753906 1.59375 1.351562 1.59375 2.183594 C 1.59375 3.019531 2.207031 3.617188 3.027344 3.617188 C 3.847656 3.617188 4.460938 3.019531 4.460938 2.183594 M 0.832031 2.183594 C 0.832031 0.976562 1.761719 0.0859375 3.027344 0.0859375 C 4.289062 0.0859375 5.21875 0.972656 5.21875 2.183594 C 5.21875 3.394531 4.289062 4.28125 3.027344 4.28125 C 1.765625 4.28125 0.832031 3.390625 0.832031 2.183594 "/></clipPath><clipPath id="2e38776236-2032"><rect x="0" width="6" y="0" height="5"/></clipPath><clipPath id="30849afde6-2033"><path d="M 83.503906 60.117188 L 89.855469 60.117188 L 89.855469 64.25 L 83.503906 64.25 Z M 83.503906 60.117188 "/></clipPath><clipPath id="df89a6e040-2034"><path d="M 89.851562 60.144531 L 88.5 64.222656 L 87.695312 64.222656 L 86.6875 61.207031 L 85.664062 64.222656 L 84.855469 64.222656 L 83.503906 60.144531 L 84.292969 60.144531 L 85.304688 63.242188 L 86.359375 60.144531 L 87.058594 60.144531 L 88.089844 63.257812 L 89.132812 60.144531 Z M 89.851562 60.144531 "/></clipPath><clipPath id="1c60250564-2035"><path d="M 0.503906 0.117188 L 6.855469 0.117188 L 6.855469 4.25 L 0.503906 4.25 Z M 0.503906 0.117188 "/></clipPath><clipPath id="b9248b17d3-2036"><path d="M 6.851562 0.144531 L 5.5 4.222656 L 4.695312 4.222656 L 3.6875 1.207031 L 2.664062 4.222656 L 1.855469 4.222656 L 0.503906 0.144531 L 1.292969 0.144531 L 2.304688 3.242188 L 3.359375 0.144531 L 4.058594 0.144531 L 5.089844 3.257812 L 6.132812 0.144531 Z M 6.851562 0.144531 "/></clipPath><clipPath id="adb7ba7b3a-2037"><rect x="0" width="7" y="0" height="5"/></clipPath><clipPath id="c2f88de28d-2038"><path d="M 90.464844 60.144531 L 93.441406 60.144531 L 93.441406 60.777344 L 90.464844 60.777344 Z M 90.464844 60.777344 L 91.222656 60.777344 L 91.222656 61.839844 L 90.464844 61.839844 Z M 90.464844 61.839844 L 93.191406 61.839844 L 93.191406 62.464844 L 90.464844 62.464844 Z M 90.464844 62.464844 L 91.222656 62.464844 L 91.222656 63.585938 L 90.464844 63.585938 Z M 90.464844 63.585938 L 93.523438 63.585938 L 93.523438 64.222656 L 90.464844 64.222656 Z M 90.464844 63.585938 "/></clipPath><clipPath id="7cf5f70ec3-2039"><path d="M 0.464844 0.144531 L 3.441406 0.144531 L 3.441406 0.777344 L 0.464844 0.777344 Z M 0.464844 0.777344 L 1.222656 0.777344 L 1.222656 1.839844 L 0.464844 1.839844 Z M 0.464844 1.839844 L 3.191406 1.839844 L 3.191406 2.464844 L 0.464844 2.464844 Z M 0.464844 2.464844 L 1.222656 2.464844 L 1.222656 3.585938 L 0.464844 3.585938 Z M 0.464844 3.585938 L 3.523438 3.585938 L 3.523438 4.222656 L 0.464844 4.222656 Z M 0.464844 3.585938 "/></clipPath><clipPath id="008488cfb6-2040"><rect x="0" width="4" y="0" height="5"/></clipPath><clipPath id="ad4257d5ef-2041"><path d="M 94.363281 60.117188 L 97.867188 60.117188 L 97.867188 64.25 L 94.363281 64.25 Z M 94.363281 60.117188 "/></clipPath><clipPath id="da1d728161-2042"><path d="M 96.003906 60.785156 L 95.121094 60.785156 L 95.121094 62.410156 L 96.007812 62.410156 C 96.671875 62.410156 97.019531 62.109375 97.019531 61.597656 C 97.019531 61.085938 96.671875 60.785156 96.007812 60.785156 M 97.03125 64.222656 L 96.199219 63.027344 C 96.148438 63.03125 96.09375 63.03125 96.042969 63.03125 L 95.121094 63.03125 L 95.121094 64.222656 L 94.367188 64.222656 L 94.367188 60.144531 L 96.042969 60.144531 C 97.113281 60.144531 97.777344 60.691406 97.777344 61.59375 C 97.777344 62.210938 97.464844 62.664062 96.910156 62.878906 L 97.847656 64.21875 Z M 97.03125 64.222656 "/></clipPath><clipPath id="2cdf7fbade-2043"><path d="M 0.363281 0.117188 L 3.867188 0.117188 L 3.867188 4.25 L 0.363281 4.25 Z M 0.363281 0.117188 "/></clipPath><clipPath id="a91e77b4d9-2044"><path d="M 2.003906 0.785156 L 1.121094 0.785156 L 1.121094 2.410156 L 2.007812 2.410156 C 2.671875 2.410156 3.019531 2.109375 3.019531 1.597656 C 3.019531 1.085938 2.671875 0.785156 2.007812 0.785156 M 3.03125 4.222656 L 2.199219 3.027344 C 2.148438 3.03125 2.09375 3.03125 2.042969 3.03125 L 1.121094 3.03125 L 1.121094 4.222656 L 0.367188 4.222656 L 0.367188 0.144531 L 2.042969 0.144531 C 3.113281 0.144531 3.777344 0.691406 3.777344 1.59375 C 3.777344 2.210938 3.464844 2.664062 2.910156 2.878906 L 3.847656 4.21875 Z M 3.03125 4.222656 "/></clipPath><clipPath id="26f9d723a5-2045"><rect x="0" width="4" y="0" height="5"/></clipPath><clipPath id="1be1eb25c2-2046"><path d="M 98.617188 60.144531 L 101.59375 60.144531 L 101.59375 60.777344 L 98.617188 60.777344 Z M 98.617188 60.777344 L 99.375 60.777344 L 99.375 61.839844 L 98.617188 61.839844 Z M 98.617188 61.839844 L 101.34375 61.839844 L 101.34375 62.464844 L 98.617188 62.464844 Z M 98.617188 62.464844 L 99.375 62.464844 L 99.375 63.585938 L 98.617188 63.585938 Z M 98.617188 63.585938 L 101.675781 63.585938 L 101.675781 64.222656 L 98.617188 64.222656 Z M 98.617188 63.585938 "/></clipPath><clipPath id="777afc8008-2047"><path d="M 0.617188 0.144531 L 3.59375 0.144531 L 3.59375 0.777344 L 0.617188 0.777344 Z M 0.617188 0.777344 L 1.375 0.777344 L 1.375 1.839844 L 0.617188 1.839844 Z M 0.617188 1.839844 L 3.34375 1.839844 L 3.34375 2.464844 L 0.617188 2.464844 Z M 0.617188 2.464844 L 1.375 2.464844 L 1.375 3.585938 L 0.617188 3.585938 Z M 0.617188 3.585938 L 3.675781 3.585938 L 3.675781 4.222656 L 0.617188 4.222656 Z M 0.617188 3.585938 "/></clipPath><clipPath id="de2ac0ffb7-2048"><rect x="0" width="4" y="0" height="5"/></clipPath><clipPath id="93a7597091-2049"><path d="M 102.5 60.117188 L 106.535156 60.117188 L 106.535156 64.21875 L 102.5 64.21875 Z M 102.5 60.117188 "/></clipPath><clipPath id="3552d700b6-2050"><path d="M 104.265625 63.578125 C 105.171875 63.578125 105.757812 63.027344 105.757812 62.179688 C 105.757812 61.335938 105.167969 60.78125 104.265625 60.78125 L 103.273438 60.78125 L 103.273438 63.574219 Z M 102.519531 60.144531 L 104.296875 60.144531 C 105.621094 60.144531 106.523438 60.957031 106.523438 62.179688 C 106.523438 63.402344 105.621094 64.21875 104.296875 64.21875 L 102.519531 64.21875 Z M 102.519531 60.144531 "/></clipPath><clipPath id="931d9c7d98-2051"><path d="M 0.5 0.117188 L 4.535156 0.117188 L 4.535156 4.21875 L 0.5 4.21875 Z M 0.5 0.117188 "/></clipPath><clipPath id="50e5a7d8e5-2052"><path d="M 2.265625 3.578125 C 3.171875 3.578125 3.757812 3.027344 3.757812 2.179688 C 3.757812 1.335938 3.167969 0.78125 2.265625 0.78125 L 1.273438 0.78125 L 1.273438 3.574219 Z M 0.519531 0.144531 L 2.296875 0.144531 C 3.621094 0.144531 4.523438 0.957031 4.523438 2.179688 C 4.523438 3.402344 3.621094 4.21875 2.296875 4.21875 L 0.519531 4.21875 Z M 0.519531 0.144531 "/></clipPath><clipPath id="0b85999736-2053"><rect x="0" width="5" y="0" height="5"/></clipPath><clipPath id="98f230fe45-2054"><path d="M 108.914062 60.117188 L 112.574219 60.117188 L 112.574219 64.25 L 108.914062 64.25 Z M 108.914062 60.117188 "/></clipPath><clipPath id="da9f6602cf-2055"><path d="M 111.785156 63.039062 C 111.785156 62.632812 111.476562 62.453125 110.90625 62.453125 L 109.683594 62.453125 L 109.683594 63.628906 L 110.90625 63.628906 C 111.476562 63.628906 111.785156 63.449219 111.785156 63.039062 M 109.683594 60.742188 L 109.683594 61.863281 L 110.753906 61.863281 C 111.277344 61.863281 111.574219 61.675781 111.574219 61.304688 C 111.574219 60.929688 111.277344 60.742188 110.753906 60.742188 Z M 112.550781 63.117188 C 112.550781 63.816406 112.003906 64.222656 110.957031 64.222656 L 108.933594 64.222656 L 108.933594 60.144531 L 110.84375 60.144531 C 111.820312 60.144531 112.34375 60.558594 112.34375 61.203125 C 112.34375 61.625 112.132812 61.929688 111.820312 62.101562 C 112.257812 62.242188 112.554688 62.582031 112.554688 63.113281 "/></clipPath><clipPath id="f54cd71b43-2056"><path d="M 0.914062 0.117188 L 4.574219 0.117188 L 4.574219 4.25 L 0.914062 4.25 Z M 0.914062 0.117188 "/></clipPath><clipPath id="7bbda16f03-2057"><path d="M 3.785156 3.039062 C 3.785156 2.632812 3.476562 2.453125 2.90625 2.453125 L 1.683594 2.453125 L 1.683594 3.628906 L 2.90625 3.628906 C 3.476562 3.628906 3.785156 3.449219 3.785156 3.039062 M 1.683594 0.742188 L 1.683594 1.863281 L 2.753906 1.863281 C 3.277344 1.863281 3.574219 1.675781 3.574219 1.304688 C 3.574219 0.929688 3.277344 0.742188 2.753906 0.742188 Z M 4.550781 3.117188 C 4.550781 3.816406 4.003906 4.222656 2.957031 4.222656 L 0.933594 4.222656 L 0.933594 0.144531 L 2.84375 0.144531 C 3.820312 0.144531 4.34375 0.558594 4.34375 1.203125 C 4.34375 1.625 4.132812 1.929688 3.820312 2.101562 C 4.257812 2.242188 4.554688 2.582031 4.554688 3.113281 "/></clipPath><clipPath id="07fd30b1ba-2058"><rect x="0" width="5" y="0" height="5"/></clipPath><clipPath id="e6f3a2b1ee-2059"><path d="M 112.667969 60.117188 L 116.644531 60.117188 L 116.644531 64.25 L 112.667969 64.25 Z M 112.667969 60.117188 "/></clipPath><clipPath id="c368dc1fcf-2060"><path d="M 115.03125 62.785156 L 115.03125 64.222656 L 114.273438 64.222656 L 114.273438 62.796875 L 112.671875 60.148438 L 113.480469 60.148438 L 114.675781 62.136719 L 115.878906 60.148438 L 116.621094 60.148438 Z M 115.03125 62.785156 "/></clipPath><clipPath id="e731a6c3b3-2061"><path d="M 0.667969 0.117188 L 4.644531 0.117188 L 4.644531 4.25 L 0.667969 4.25 Z M 0.667969 0.117188 "/></clipPath><clipPath id="1e4fd07253-2062"><path d="M 3.03125 2.785156 L 3.03125 4.222656 L 2.273438 4.222656 L 2.273438 2.796875 L 0.671875 0.148438 L 1.480469 0.148438 L 2.675781 2.136719 L 3.878906 0.148438 L 4.621094 0.148438 Z M 3.03125 2.785156 "/></clipPath><clipPath id="cd51e05067-2063"><rect x="0" width="5" y="0" height="5"/></clipPath><clipPath id="aad458a541-2064"><path d="M 164.660156 16.160156 L 194.386719 16.160156 L 194.386719 51.480469 L 164.660156 51.480469 Z M 164.660156 16.160156 "/></clipPath><clipPath id="47803bc0b2-2065"><path d="M 178.132812 51.335938 C 175.988281 51.335938 174.210938 51.265625 172.492188 50.921875 C 169.085938 50.242188 166.453125 48.105469 165.277344 45.0625 C 164.09375 41.996094 164.640625 38.519531 166.753906 35.761719 C 167.9375 34.214844 169.5625 32.648438 171.574219 31.113281 C 173.882812 29.351562 176.332031 27.667969 178.699219 26.035156 C 179.738281 25.324219 180.777344 24.605469 181.8125 23.882812 C 181.988281 23.761719 182.160156 23.625 182.394531 23.445312 L 182.8125 23.125 L 184.738281 21.746094 L 169.777344 21.746094 L 169.753906 16.1875 L 187.160156 16.1875 C 191.074219 16.1875 194.246094 19.304688 194.246094 23.148438 L 194.246094 45.441406 L 188.6875 45.441406 L 188.6875 25.871094 C 188.6875 25.871094 185.347656 28.113281 185.144531 28.257812 C 184.261719 28.871094 183.382812 29.484375 182.5 30.097656 C 179.871094 31.925781 177.148438 34.15625 174.511719 36.074219 C 173.464844 36.832031 171.910156 37.976562 171.367188 39.253906 C 170.835938 40.5 170.691406 41.476562 170.960938 42.722656 C 171.40625 44.792969 173.972656 45.785156 176.078125 45.785156 L 176.164062 45.785156 C 176.875 45.777344 177.585938 45.773438 178.296875 45.773438 C 178.871094 45.773438 182.625 45.78125 183.140625 45.78125 L 183.148438 51.332031 C 182.875 51.328125 178.554688 51.339844 178.132812 51.339844 "/></clipPath><clipPath id="a363f5dead-2066"><path d="M 0.660156 0.160156 L 30.347656 0.160156 L 30.347656 35.457031 L 0.660156 35.457031 Z M 0.660156 0.160156 "/></clipPath><clipPath id="c2ff6fccdf-2067"><path d="M 14.132812 35.335938 C 11.988281 35.335938 10.210938 35.265625 8.492188 34.921875 C 5.085938 34.242188 2.453125 32.105469 1.277344 29.0625 C 0.09375 25.996094 0.640625 22.519531 2.753906 19.761719 C 3.9375 18.214844 5.5625 16.648438 7.574219 15.113281 C 9.882812 13.351562 12.332031 11.667969 14.699219 10.035156 C 15.738281 9.324219 16.777344 8.605469 17.8125 7.882812 C 17.988281 7.761719 18.160156 7.625 18.394531 7.445312 L 18.8125 7.125 L 20.738281 5.746094 L 5.777344 5.746094 L 5.753906 0.1875 L 23.160156 0.1875 C 27.074219 0.1875 30.246094 3.304688 30.246094 7.148438 L 30.246094 29.441406 L 24.6875 29.441406 L 24.6875 9.871094 C 24.6875 9.871094 21.347656 12.113281 21.144531 12.257812 C 20.261719 12.871094 19.382812 13.484375 18.5 14.097656 C 15.871094 15.925781 13.148438 18.15625 10.511719 20.074219 C 9.464844 20.832031 7.910156 21.976562 7.367188 23.253906 C 6.835938 24.5 6.691406 25.476562 6.960938 26.722656 C 7.40625 28.792969 9.972656 29.785156 12.078125 29.785156 L 12.164062 29.785156 C 12.875 29.777344 13.585938 29.773438 14.296875 29.773438 C 14.871094 29.773438 18.625 29.78125 19.140625 29.78125 L 19.148438 35.332031 C 18.875 35.328125 14.554688 35.339844 14.132812 35.339844 "/></clipPath><clipPath id="ed63475ed6-2068"><rect x="0" width="31" y="0" height="36"/></clipPath><clipPath id="c6469ae2e9-2069"><path d="M 50.382812 15.039062 L 89.539062 15.039062 L 89.539062 52.441406 L 50.382812 52.441406 Z M 50.382812 15.039062 "/></clipPath><clipPath id="7e4ba15d66-2070"><path d="M 69.707031 20.75 C 73.894531 20.75 77.785156 22.796875 80.183594 26.472656 L 56.960938 35.789062 C 55.757812 29.785156 58.710938 24.125 64.628906 21.75 C 66.320312 21.074219 68.035156 20.75 69.703125 20.75 Z M 70.175781 15.191406 C 67.671875 15.191406 65.085938 15.679688 62.53125 16.703125 C 52.515625 20.722656 47.960938 31.125 52 40.835938 C 55.007812 48.0625 61.683594 52.289062 69.109375 52.289062 C 71.664062 52.289062 74.304688 51.789062 76.917969 50.742188 C 84.722656 47.609375 89.410156 40.808594 89.40625 33.503906 L 83.160156 36.007812 C 82.628906 40.023438 79.503906 43.8125 74.882812 45.664062 C 73.085938 46.386719 71.289062 46.730469 69.566406 46.730469 C 65.238281 46.730469 61.347656 44.5625 58.941406 40.730469 L 88.082031 29.035156 C 87.878906 28.371094 87.519531 27.320312 87.257812 26.683594 C 84.238281 19.4375 77.5625 15.191406 70.175781 15.191406 Z M 70.175781 15.191406 "/></clipPath><clipPath id="704433786b-2071"><path d="M 0.382812 0.078125 L 39.515625 0.078125 L 39.515625 37.414062 L 0.382812 37.414062 Z M 0.382812 0.078125 "/></clipPath><clipPath id="69b9807fa0-2072"><path d="M 19.707031 5.75 C 23.894531 5.75 27.785156 7.796875 30.183594 11.472656 L 6.960938 20.789062 C 5.757812 14.785156 8.710938 9.125 14.628906 6.75 C 16.320312 6.074219 18.035156 5.75 19.703125 5.75 Z M 20.175781 0.191406 C 17.671875 0.191406 15.085938 0.679688 12.53125 1.703125 C 2.515625 5.722656 -2.039062 16.125 2 25.835938 C 5.007812 33.0625 11.683594 37.289062 19.109375 37.289062 C 21.664062 37.289062 24.304688 36.789062 26.917969 35.742188 C 34.722656 32.609375 39.410156 25.808594 39.40625 18.503906 L 33.160156 21.007812 C 32.628906 25.023438 29.503906 28.8125 24.882812 30.664062 C 23.085938 31.386719 21.289062 31.730469 19.566406 31.730469 C 15.238281 31.730469 11.347656 29.5625 8.941406 25.730469 L 38.082031 14.035156 C 37.878906 13.371094 37.519531 12.320312 37.257812 11.683594 C 34.238281 4.4375 27.5625 0.191406 20.175781 0.191406 Z M 20.175781 0.191406 "/></clipPath><clipPath id="7bf1aef4ce-2073"><rect x="0" width="40" y="0" height="38"/></clipPath><clipPath id="ff3fa3a6f4-2074"><path d="M 87.460938 16.160156 L 121.824219 16.160156 L 121.824219 51.480469 L 87.460938 51.480469 Z M 87.460938 16.160156 "/></clipPath><clipPath id="88619c7529-2075"><path d="M 119.023438 30.378906 L 109.535156 51.359375 L 103.214844 51.359375 L 87.476562 16.160156 L 94.363281 16.160156 L 106.449219 44.246094 L 113.195312 29.136719 C 115.304688 24.097656 116.078125 19.816406 115.230469 16.160156 L 121.414062 16.160156 C 122.257812 20.097656 121.480469 24.789062 119.027344 30.375 "/></clipPath><clipPath id="22c1e04d9e-2076"><path d="M 0.460938 0.160156 L 34.824219 0.160156 L 34.824219 35.457031 L 0.460938 35.457031 Z M 0.460938 0.160156 "/></clipPath><clipPath id="4884197ffa-2077"><path d="M 32.023438 14.378906 L 22.535156 35.359375 L 16.214844 35.359375 L 0.476562 0.160156 L 7.363281 0.160156 L 19.449219 28.246094 L 26.195312 13.136719 C 28.304688 8.097656 29.078125 3.816406 28.230469 0.160156 L 34.414062 0.160156 C 35.257812 4.097656 34.480469 8.789062 32.027344 14.375 "/></clipPath><clipPath id="a3d03834b0-2078"><rect x="0" width="35" y="0" height="36"/></clipPath><clipPath id="10563a2453-2079"><path d="M 123.105469 15.199219 L 161.464844 15.199219 L 161.464844 52.28125 L 123.105469 52.28125 Z M 123.105469 15.199219 "/></clipPath><clipPath id="3cb9a940bf-2080"><path d="M 123.238281 33.761719 C 123.238281 23.269531 131.460938 15.335938 142.351562 15.335938 C 153.175781 15.335938 161.394531 23.273438 161.394531 33.761719 C 161.394531 44.246094 153.175781 52.1875 142.351562 52.1875 C 131.460938 52.1875 123.238281 44.246094 123.238281 33.761719 M 155.136719 33.761719 C 155.136719 26.515625 149.65625 21.0625 142.347656 21.0625 C 134.972656 21.0625 129.488281 26.515625 129.488281 33.761719 C 129.488281 41.007812 134.972656 46.460938 142.347656 46.460938 C 149.65625 46.460938 155.136719 41.007812 155.136719 33.761719 "/></clipPath><clipPath id="33371fb492-2081"><path d="M 0.105469 0.316406 L 38.464844 0.316406 L 38.464844 37.28125 L 0.105469 37.28125 Z M 0.105469 0.316406 "/></clipPath><clipPath id="65b18f6b7d-2082"><path d="M 0.238281 18.761719 C 0.238281 8.269531 8.460938 0.335938 19.351562 0.335938 C 30.175781 0.335938 38.394531 8.273438 38.394531 18.761719 C 38.394531 29.246094 30.175781 37.1875 19.351562 37.1875 C 8.460938 37.1875 0.238281 29.246094 0.238281 18.761719 M 32.136719 18.761719 C 32.136719 11.515625 26.65625 6.0625 19.347656 6.0625 C 11.972656 6.0625 6.488281 11.515625 6.488281 18.761719 C 6.488281 26.007812 11.972656 31.460938 19.347656 31.460938 C 26.65625 31.460938 32.136719 26.007812 32.136719 18.761719 "/></clipPath><clipPath id="55bfff2a1a-2083"><rect x="0" width="39" y="0" height="38"/></clipPath><clipPath id="6fff558c44-2084"><path d="M 185.925781 62.625 L 194.289062 62.625 L 194.289062 73.175781 L 185.925781 73.175781 Z M 185.925781 62.625 "/></clipPath><clipPath id="f2a90d8816-2085"><path d="M 192.167969 67.449219 C 192.335938 67.511719 192.480469 67.550781 192.621094 67.613281 C 193.472656 67.980469 194.046875 68.582031 194.203125 69.5 C 194.378906 70.566406 194.019531 71.453125 193.171875 72.144531 C 192.699219 72.535156 192.136719 72.742188 191.550781 72.882812 C 190.714844 73.082031 189.863281 73.144531 189.003906 73.140625 C 188.28125 73.136719 187.550781 73.105469 186.824219 73.074219 C 186.566406 73.0625 186.304688 73.011719 186.046875 72.976562 C 185.988281 72.96875 185.957031 72.949219 185.964844 72.890625 C 185.96875 72.875 185.964844 72.855469 185.964844 72.839844 C 185.964844 69.558594 185.964844 66.28125 185.960938 63 C 185.960938 62.902344 185.984375 62.859375 186.085938 62.851562 C 186.542969 62.808594 186.996094 62.734375 187.453125 62.714844 C 188.257812 62.679688 189.054688 62.664062 189.859375 62.660156 C 190.453125 62.65625 191.050781 62.703125 191.628906 62.847656 C 192.171875 62.980469 192.675781 63.191406 193.109375 63.546875 C 194.160156 64.414062 194.273438 66.21875 192.851562 67.097656 C 192.671875 67.207031 192.476562 67.289062 192.292969 67.382812 C 192.261719 67.398438 192.226562 67.414062 192.167969 67.441406 M 188.753906 68.628906 L 188.753906 71.09375 C 188.785156 71.101562 188.808594 71.109375 188.832031 71.109375 C 189.132812 71.117188 189.433594 71.132812 189.730469 71.125 C 190.058594 71.113281 190.382812 71.050781 190.671875 70.890625 C 191.09375 70.660156 191.292969 70.304688 191.292969 69.832031 C 191.292969 69.390625 191.082031 69.070312 190.683594 68.871094 C 190.5625 68.808594 190.429688 68.761719 190.296875 68.726562 C 189.792969 68.585938 189.277344 68.632812 188.75 68.625 M 188.75 66.675781 C 188.941406 66.675781 189.125 66.679688 189.308594 66.675781 C 189.683594 66.671875 190.054688 66.648438 190.40625 66.503906 C 190.941406 66.296875 191.191406 65.847656 191.050781 65.335938 C 190.957031 65 190.707031 64.8125 190.386719 64.71875 C 189.847656 64.558594 189.300781 64.609375 188.75 64.675781 Z M 188.75 66.675781 "/></clipPath><clipPath id="43b194ea83-2086"><path d="M 0.925781 0.625 L 9.289062 0.625 L 9.289062 11.175781 L 0.925781 11.175781 Z M 0.925781 0.625 "/></clipPath><clipPath id="bc675f77c8-2087"><path d="M 7.167969 5.449219 C 7.335938 5.511719 7.480469 5.550781 7.621094 5.613281 C 8.472656 5.980469 9.046875 6.582031 9.203125 7.5 C 9.378906 8.566406 9.019531 9.453125 8.171875 10.144531 C 7.699219 10.535156 7.136719 10.742188 6.550781 10.882812 C 5.714844 11.082031 4.863281 11.144531 4.003906 11.140625 C 3.28125 11.136719 2.550781 11.105469 1.824219 11.074219 C 1.566406 11.0625 1.304688 11.011719 1.046875 10.976562 C 0.988281 10.96875 0.957031 10.949219 0.964844 10.890625 C 0.96875 10.875 0.964844 10.855469 0.964844 10.839844 C 0.964844 7.558594 0.964844 4.28125 0.960938 1 C 0.960938 0.902344 0.984375 0.859375 1.085938 0.851562 C 1.542969 0.808594 1.996094 0.734375 2.453125 0.714844 C 3.257812 0.679688 4.054688 0.664062 4.859375 0.660156 C 5.453125 0.65625 6.050781 0.703125 6.628906 0.847656 C 7.171875 0.980469 7.675781 1.191406 8.109375 1.546875 C 9.160156 2.414062 9.273438 4.21875 7.851562 5.097656 C 7.671875 5.207031 7.476562 5.289062 7.292969 5.382812 C 7.261719 5.398438 7.226562 5.414062 7.167969 5.441406 M 3.753906 6.628906 L 3.753906 9.09375 C 3.785156 9.101562 3.808594 9.109375 3.832031 9.109375 C 4.132812 9.117188 4.433594 9.132812 4.730469 9.125 C 5.058594 9.113281 5.382812 9.050781 5.671875 8.890625 C 6.09375 8.660156 6.292969 8.304688 6.292969 7.832031 C 6.292969 7.390625 6.082031 7.070312 5.683594 6.871094 C 5.5625 6.808594 5.429688 6.761719 5.296875 6.726562 C 4.792969 6.585938 4.277344 6.632812 3.75 6.625 M 3.75 4.675781 C 3.941406 4.675781 4.125 4.679688 4.308594 4.675781 C 4.683594 4.671875 5.054688 4.648438 5.40625 4.503906 C 5.941406 4.296875 6.191406 3.847656 6.050781 3.335938 C 5.957031 3 5.707031 2.8125 5.386719 2.71875 C 4.847656 2.558594 4.300781 2.609375 3.75 2.675781 Z M 3.75 4.675781 "/></clipPath><clipPath id="3dd98e81dc-2088"><rect x="0" width="10" y="0" height="12"/></clipPath><clipPath id="d21b9c4451-2089"><path d="M 163.542969 62.546875 L 173.941406 62.546875 L 173.941406 73.25 L 163.542969 73.25 Z M 163.542969 62.546875 "/></clipPath><clipPath id="15cc674e52-2090"><path d="M 168.71875 73.195312 C 167.769531 73.191406 166.921875 73.03125 166.132812 72.605469 C 165.105469 72.054688 164.402344 71.222656 164.003906 70.160156 C 163.4375 68.671875 163.425781 67.167969 164.019531 65.6875 C 164.695312 64 165.964844 62.972656 167.792969 62.648438 C 168.855469 62.460938 169.902344 62.535156 170.910156 62.9375 C 172.132812 63.425781 172.964844 64.300781 173.460938 65.488281 C 173.757812 66.199219 173.894531 66.945312 173.898438 67.714844 C 173.902344 68.644531 173.765625 69.550781 173.371094 70.40625 C 172.707031 71.851562 171.558594 72.714844 169.996094 73.058594 C 169.558594 73.152344 169.109375 73.1875 168.722656 73.195312 M 166.542969 67.898438 C 166.574219 68.207031 166.589844 68.511719 166.640625 68.816406 C 166.726562 69.367188 166.917969 69.886719 167.28125 70.324219 C 167.957031 71.140625 169.183594 71.261719 169.972656 70.585938 C 170.351562 70.261719 170.574219 69.84375 170.71875 69.382812 C 170.964844 68.585938 170.988281 67.773438 170.851562 66.960938 C 170.769531 66.453125 170.601562 65.976562 170.289062 65.550781 C 169.757812 64.820312 168.875 64.550781 168.058594 64.871094 C 167.566406 65.066406 167.234375 65.433594 166.996094 65.886719 C 166.664062 66.515625 166.566406 67.199219 166.539062 67.902344 "/></clipPath><clipPath id="f612d07e9a-2091"><path d="M 0.542969 0.546875 L 10.941406 0.546875 L 10.941406 11.238281 L 0.542969 11.238281 Z M 0.542969 0.546875 "/></clipPath><clipPath id="ee2b470362-2092"><path d="M 5.71875 11.195312 C 4.769531 11.191406 3.921875 11.03125 3.132812 10.605469 C 2.105469 10.054688 1.402344 9.222656 1.003906 8.160156 C 0.4375 6.671875 0.425781 5.167969 1.019531 3.6875 C 1.695312 2 2.964844 0.972656 4.792969 0.648438 C 5.855469 0.460938 6.902344 0.535156 7.910156 0.9375 C 9.132812 1.425781 9.964844 2.300781 10.460938 3.488281 C 10.757812 4.199219 10.894531 4.945312 10.898438 5.714844 C 10.902344 6.644531 10.765625 7.550781 10.371094 8.40625 C 9.707031 9.851562 8.558594 10.714844 6.996094 11.058594 C 6.558594 11.152344 6.109375 11.1875 5.722656 11.195312 M 3.542969 5.898438 C 3.574219 6.207031 3.589844 6.511719 3.640625 6.816406 C 3.726562 7.367188 3.917969 7.886719 4.28125 8.324219 C 4.957031 9.140625 6.183594 9.261719 6.972656 8.585938 C 7.351562 8.261719 7.574219 7.84375 7.71875 7.382812 C 7.964844 6.585938 7.988281 5.773438 7.851562 4.960938 C 7.769531 4.453125 7.601562 3.976562 7.289062 3.550781 C 6.757812 2.820312 5.875 2.550781 5.058594 2.871094 C 4.566406 3.066406 4.234375 3.433594 3.996094 3.886719 C 3.664062 4.515625 3.566406 5.199219 3.539062 5.902344 "/></clipPath><clipPath id="120bcd13f7-2093"><rect x="0" width="11" y="0" height="12"/></clipPath><clipPath id="dc66aa2841-2094"><path d="M 174.773438 62.546875 L 185.171875 62.546875 L 185.171875 73.25 L 174.773438 73.25 Z M 174.773438 62.546875 "/></clipPath><clipPath id="181e8eb675-2095"><path d="M 179.941406 73.195312 C 178.902344 73.191406 177.980469 72.996094 177.144531 72.492188 C 176.21875 71.933594 175.59375 71.136719 175.207031 70.144531 C 174.878906 69.304688 174.769531 68.433594 174.820312 67.539062 C 174.875 66.664062 175.089844 65.824219 175.527344 65.058594 C 176.296875 63.714844 177.460938 62.90625 179.003906 62.644531 C 180.054688 62.464844 181.09375 62.53125 182.089844 62.921875 C 183.28125 63.382812 184.113281 64.222656 184.625 65.363281 C 185.035156 66.285156 185.160156 67.253906 185.097656 68.25 C 185.046875 69.023438 184.890625 69.773438 184.554688 70.472656 C 183.878906 71.875 182.746094 72.722656 181.207031 73.054688 C 180.769531 73.148438 180.324219 73.183594 179.945312 73.191406 M 177.757812 67.890625 C 177.789062 68.207031 177.808594 68.519531 177.859375 68.828125 C 177.945312 69.371094 178.136719 69.875 178.488281 70.3125 C 179.191406 71.179688 180.519531 71.230469 181.257812 70.519531 C 181.582031 70.210938 181.789062 69.832031 181.921875 69.414062 C 182.179688 68.609375 182.210938 67.789062 182.070312 66.960938 C 181.988281 66.453125 181.824219 65.976562 181.519531 65.550781 C 180.988281 64.8125 180.101562 64.539062 179.285156 64.859375 C 178.789062 65.054688 178.457031 65.421875 178.222656 65.871094 C 177.890625 66.5 177.789062 67.1875 177.761719 67.886719 "/></clipPath><clipPath id="9495536219-2096"><path d="M 0.773438 0.546875 L 11.171875 0.546875 L 11.171875 11.238281 L 0.773438 11.238281 Z M 0.773438 0.546875 "/></clipPath><clipPath id="5c89206e8a-2097"><path d="M 5.941406 11.195312 C 4.902344 11.191406 3.980469 10.996094 3.144531 10.492188 C 2.21875 9.933594 1.59375 9.136719 1.207031 8.144531 C 0.878906 7.304688 0.769531 6.433594 0.820312 5.539062 C 0.875 4.664062 1.089844 3.824219 1.527344 3.058594 C 2.296875 1.714844 3.460938 0.90625 5.003906 0.644531 C 6.054688 0.464844 7.09375 0.53125 8.089844 0.921875 C 9.28125 1.382812 10.113281 2.222656 10.625 3.363281 C 11.035156 4.285156 11.160156 5.253906 11.097656 6.25 C 11.046875 7.023438 10.890625 7.773438 10.554688 8.472656 C 9.878906 9.875 8.746094 10.722656 7.207031 11.054688 C 6.769531 11.148438 6.324219 11.183594 5.945312 11.191406 M 3.757812 5.890625 C 3.789062 6.207031 3.808594 6.519531 3.859375 6.828125 C 3.945312 7.371094 4.136719 7.875 4.488281 8.3125 C 5.191406 9.179688 6.519531 9.230469 7.257812 8.519531 C 7.582031 8.210938 7.789062 7.832031 7.921875 7.414062 C 8.179688 6.609375 8.210938 5.789062 8.070312 4.960938 C 7.988281 4.453125 7.824219 3.976562 7.519531 3.550781 C 6.988281 2.8125 6.101562 2.539062 5.285156 2.859375 C 4.789062 3.054688 4.457031 3.421875 4.222656 3.871094 C 3.890625 4.5 3.789062 5.1875 3.761719 5.886719 "/></clipPath><clipPath id="085cb137fe-2098"><rect x="0" width="12" y="0" height="12"/></clipPath><clipPath id="fedd4f45d7-2099"><path d="M 141.765625 62.546875 L 149.375 62.546875 L 149.375 73.25 L 141.765625 73.25 Z M 141.765625 62.546875 "/></clipPath><clipPath id="c7481b2103-2100"><path d="M 148.332031 65.292969 C 147.617188 65.003906 146.882812 64.832031 146.113281 64.820312 C 145.800781 64.816406 145.488281 64.839844 145.195312 64.96875 C 144.9375 65.089844 144.75 65.265625 144.738281 65.566406 C 144.730469 65.789062 144.832031 65.953125 145.003906 66.082031 C 145.269531 66.277344 145.574219 66.390625 145.875 66.511719 C 146.394531 66.722656 146.921875 66.914062 147.429688 67.144531 C 147.929688 67.367188 148.371094 67.6875 148.726562 68.105469 C 149.207031 68.675781 149.378906 69.339844 149.339844 70.066406 C 149.304688 70.71875 149.089844 71.304688 148.660156 71.8125 C 148.269531 72.269531 147.777344 72.582031 147.21875 72.796875 C 146.480469 73.082031 145.707031 73.179688 144.921875 73.179688 C 143.949219 73.179688 143.003906 73.03125 142.09375 72.6875 C 142 72.648438 141.902344 72.605469 141.796875 72.5625 C 141.972656 71.804688 142.148438 71.050781 142.324219 70.296875 C 142.488281 70.363281 142.644531 70.4375 142.808594 70.496094 C 143.578125 70.789062 144.371094 70.945312 145.195312 70.925781 C 145.480469 70.917969 145.753906 70.878906 146.011719 70.765625 C 146.386719 70.597656 146.5625 70.265625 146.464844 69.902344 C 146.40625 69.691406 146.253906 69.550781 146.078125 69.4375 C 145.742188 69.21875 145.367188 69.089844 144.996094 68.957031 C 144.351562 68.738281 143.722656 68.472656 143.164062 68.078125 C 142.648438 67.714844 142.214844 67.273438 142.027344 66.664062 C 141.679688 65.539062 141.941406 64.546875 142.777344 63.710938 C 143.320312 63.167969 144.007812 62.875 144.757812 62.71875 C 145.503906 62.5625 146.257812 62.53125 147.015625 62.65625 C 147.375 62.710938 147.714844 62.820312 148.011719 63.03125 C 148.363281 63.289062 148.539062 63.636719 148.566406 64.058594 C 148.59375 64.441406 148.496094 64.9375 148.335938 65.296875 "/></clipPath><clipPath id="218c687678-2101"><path d="M 0.765625 0.546875 L 8.375 0.546875 L 8.375 11.238281 L 0.765625 11.238281 Z M 0.765625 0.546875 "/></clipPath><clipPath id="6d3efbeeff-2102"><path d="M 7.332031 3.292969 C 6.617188 3.003906 5.882812 2.832031 5.113281 2.820312 C 4.800781 2.816406 4.488281 2.839844 4.195312 2.96875 C 3.9375 3.089844 3.75 3.265625 3.738281 3.566406 C 3.730469 3.789062 3.832031 3.953125 4.003906 4.082031 C 4.269531 4.277344 4.574219 4.390625 4.875 4.511719 C 5.394531 4.722656 5.921875 4.914062 6.429688 5.144531 C 6.929688 5.367188 7.371094 5.6875 7.726562 6.105469 C 8.207031 6.675781 8.378906 7.339844 8.339844 8.066406 C 8.304688 8.71875 8.089844 9.304688 7.660156 9.8125 C 7.269531 10.269531 6.777344 10.582031 6.21875 10.796875 C 5.480469 11.082031 4.707031 11.179688 3.921875 11.179688 C 2.949219 11.179688 2.003906 11.03125 1.09375 10.6875 C 1 10.648438 0.902344 10.605469 0.796875 10.5625 C 0.972656 9.804688 1.148438 9.050781 1.324219 8.296875 C 1.488281 8.363281 1.644531 8.4375 1.808594 8.496094 C 2.578125 8.789062 3.371094 8.945312 4.195312 8.925781 C 4.480469 8.917969 4.753906 8.878906 5.011719 8.765625 C 5.386719 8.597656 5.5625 8.265625 5.464844 7.902344 C 5.40625 7.691406 5.253906 7.550781 5.078125 7.4375 C 4.742188 7.21875 4.367188 7.089844 3.996094 6.957031 C 3.351562 6.738281 2.722656 6.472656 2.164062 6.078125 C 1.648438 5.714844 1.214844 5.273438 1.027344 4.664062 C 0.679688 3.539062 0.941406 2.546875 1.777344 1.710938 C 2.320312 1.167969 3.007812 0.875 3.757812 0.71875 C 4.503906 0.5625 5.257812 0.53125 6.015625 0.65625 C 6.375 0.710938 6.714844 0.820312 7.011719 1.03125 C 7.363281 1.289062 7.539062 1.636719 7.566406 2.058594 C 7.59375 2.441406 7.496094 2.9375 7.335938 3.296875 "/></clipPath><clipPath id="3c65c7f8b6-2103"><rect x="0" width="9" y="0" height="12"/></clipPath><clipPath id="c40bf8d834-2104"><path d="M 154.800781 62.546875 L 163.167969 62.546875 L 163.167969 73.25 L 154.800781 73.25 Z M 154.800781 62.546875 "/></clipPath><clipPath id="3c4685488e-2105"><path d="M 162.777344 70.605469 C 162.824219 70.859375 162.867188 71.109375 162.914062 71.355469 C 162.992188 71.785156 163.066406 72.21875 163.152344 72.648438 C 163.167969 72.734375 163.148438 72.765625 163.070312 72.796875 C 162.65625 72.957031 162.226562 73.039062 161.785156 73.09375 C 161.179688 73.175781 160.570312 73.199219 159.960938 73.15625 C 158.949219 73.085938 157.984375 72.863281 157.113281 72.328125 C 156.058594 71.679688 155.382812 70.742188 155.082031 69.5625 C 154.753906 68.289062 154.808594 67.019531 155.304688 65.796875 C 155.863281 64.417969 156.902344 63.507812 158.300781 62.988281 C 159.210938 62.648438 160.164062 62.527344 161.136719 62.589844 C 161.550781 62.617188 161.953125 62.699219 162.3125 62.914062 C 162.757812 63.175781 162.992188 63.558594 163.023438 64.070312 C 163.046875 64.457031 162.957031 64.828125 162.8125 65.167969 C 162.5 65.089844 162.207031 65 161.902344 64.9375 C 161.222656 64.800781 160.539062 64.765625 159.863281 64.960938 C 158.800781 65.269531 158.160156 65.964844 157.929688 67.019531 C 157.785156 67.667969 157.796875 68.320312 157.996094 68.957031 C 158.3125 69.964844 159.011719 70.570312 160.050781 70.800781 C 160.5625 70.914062 161.082031 70.902344 161.597656 70.847656 C 161.992188 70.808594 162.386719 70.738281 162.785156 70.601562 "/></clipPath><clipPath id="a7dbd47a92-2106"><path d="M 0.800781 0.546875 L 9.167969 0.546875 L 9.167969 11.238281 L 0.800781 11.238281 Z M 0.800781 0.546875 "/></clipPath><clipPath id="cd6138c6e1-2107"><path d="M 8.777344 8.605469 C 8.824219 8.859375 8.867188 9.109375 8.914062 9.355469 C 8.992188 9.785156 9.066406 10.21875 9.152344 10.648438 C 9.167969 10.734375 9.148438 10.765625 9.070312 10.796875 C 8.65625 10.957031 8.226562 11.039062 7.785156 11.09375 C 7.179688 11.175781 6.570312 11.199219 5.960938 11.15625 C 4.949219 11.085938 3.984375 10.863281 3.113281 10.328125 C 2.058594 9.679688 1.382812 8.742188 1.082031 7.5625 C 0.753906 6.289062 0.808594 5.019531 1.304688 3.796875 C 1.863281 2.417969 2.902344 1.507812 4.300781 0.988281 C 5.210938 0.648438 6.164062 0.527344 7.136719 0.589844 C 7.550781 0.617188 7.953125 0.699219 8.3125 0.914062 C 8.757812 1.175781 8.992188 1.558594 9.023438 2.070312 C 9.046875 2.457031 8.957031 2.828125 8.8125 3.167969 C 8.5 3.089844 8.207031 3 7.902344 2.9375 C 7.222656 2.800781 6.539062 2.765625 5.863281 2.960938 C 4.800781 3.269531 4.160156 3.964844 3.929688 5.019531 C 3.785156 5.667969 3.796875 6.320312 3.996094 6.957031 C 4.3125 7.964844 5.011719 8.570312 6.050781 8.800781 C 6.5625 8.914062 7.082031 8.902344 7.597656 8.847656 C 7.992188 8.808594 8.386719 8.738281 8.785156 8.601562 "/></clipPath><clipPath id="8fadf75b78-2108"><rect x="0" width="10" y="0" height="12"/></clipPath><clipPath id="80f8ef6cba-2109"><path d="M 150.734375 62.699219 L 153.597656 62.699219 L 153.597656 73.023438 L 150.734375 73.023438 Z M 150.734375 62.699219 "/></clipPath><clipPath id="6b3a6105c3-2110"><path d="M 150.734375 62.75 C 150.957031 62.75 151.179688 62.742188 151.394531 62.753906 C 151.753906 62.769531 152.113281 62.808594 152.460938 62.90625 C 153.179688 63.113281 153.507812 63.527344 153.535156 64.257812 C 153.539062 64.335938 153.539062 64.414062 153.539062 64.488281 C 153.539062 67.289062 153.539062 70.089844 153.539062 72.890625 L 153.539062 73.023438 L 150.734375 73.023438 Z M 150.734375 62.75 "/></clipPath><clipPath id="85fb2fdf06-2111"><path d="M 0.734375 0.707031 L 3.597656 0.707031 L 3.597656 11.023438 L 0.734375 11.023438 Z M 0.734375 0.707031 "/></clipPath><clipPath id="f5679cbbbb-2112"><path d="M 0.734375 0.75 C 0.957031 0.75 1.179688 0.742188 1.394531 0.753906 C 1.753906 0.769531 2.113281 0.808594 2.460938 0.90625 C 3.179688 1.113281 3.507812 1.527344 3.535156 2.257812 C 3.539062 2.335938 3.539062 2.414062 3.539062 2.488281 C 3.539062 5.289062 3.539062 8.089844 3.539062 10.890625 L 3.539062 11.023438 L 0.734375 11.023438 Z M 0.734375 0.75 "/></clipPath><clipPath id="d39b907539-2113"><rect x="0" width="4" y="0" height="12"/></clipPath><clipPath id="51f73b2846-2114"><path d="M 126.84375 67 L 136.566406 67 L 136.566406 75.585938 L 126.84375 75.585938 Z M 126.84375 67 "/></clipPath><clipPath id="b81cb3e3e4-2115"><path d="M 135.046875 67.089844 L 126.90625 67.0625 L 131.5625 74.980469 C 132.023438 75.65625 132.597656 75.554688 132.597656 75.554688 C 133.226562 75.464844 133.484375 74.8125 133.484375 74.8125 L 136.527344 69.613281 Z M 135.046875 67.089844 "/></clipPath><clipPath id="1f6e054749-2116"><path d="M 0.855469 0.015625 L 10.566406 0.015625 L 10.566406 8.585938 L 0.855469 8.585938 Z M 0.855469 0.015625 "/></clipPath><clipPath id="83826ec89c-2117"><path d="M 9.046875 0.0898438 L 0.90625 0.0625 L 5.5625 7.980469 C 6.023438 8.65625 6.597656 8.554688 6.597656 8.554688 C 7.226562 8.464844 7.484375 7.8125 7.484375 7.8125 L 10.527344 2.613281 Z M 9.046875 0.0898438 "/></clipPath><clipPath id="264fed20b6-2118"><rect x="0" width="11" y="0" height="9"/></clipPath><clipPath id="4e956efbe2-2119"><path d="M 123.527344 60.0625 L 134 60.0625 L 134 69.632812 L 123.527344 69.632812 Z M 123.527344 60.0625 "/></clipPath><clipPath id="2a752d01c0-2120"><path d="M 128.402344 69.597656 L 133.996094 60.09375 L 124.816406 60.09375 C 124.816406 60.09375 124.109375 59.992188 123.71875 60.484375 C 123.71875 60.484375 123.347656 60.925781 123.71875 61.652344 Z M 128.402344 69.597656 "/></clipPath><clipPath id="6fe003710e-2121"><path d="M 0.527344 0.0625 L 11 0.0625 L 11 9.632812 L 0.527344 9.632812 Z M 0.527344 0.0625 "/></clipPath><clipPath id="10e22ac71a-2122"><path d="M 5.402344 9.597656 L 10.996094 0.09375 L 1.816406 0.09375 C 1.816406 0.09375 1.109375 -0.0078125 0.71875 0.484375 C 0.71875 0.484375 0.347656 0.925781 0.71875 1.652344 Z M 5.402344 9.597656 "/></clipPath><clipPath id="694082d3f2-2123"><rect x="0" width="11" y="0" height="10"/></clipPath><clipPath id="8a52f4a620-2124"><path d="M 130.914062 60.0625 L 141.386719 60.0625 L 141.386719 69.632812 L 130.914062 69.632812 Z M 130.914062 60.0625 "/></clipPath><clipPath id="8543551a30-2125"><path d="M 136.527344 69.609375 L 130.929688 60.09375 L 140.113281 60.09375 C 140.113281 60.09375 140.816406 59.992188 141.207031 60.484375 C 141.207031 60.484375 141.578125 60.925781 141.207031 61.652344 Z M 136.527344 69.609375 "/></clipPath><clipPath id="3292dca1ad-2126"><path d="M 0.921875 0.0625 L 11.386719 0.0625 L 11.386719 9.632812 L 0.921875 9.632812 Z M 0.921875 0.0625 "/></clipPath><clipPath id="4e9367f229-2127"><path d="M 6.527344 9.609375 L 0.929688 0.09375 L 10.113281 0.09375 C 10.113281 0.09375 10.816406 -0.0078125 11.207031 0.484375 C 11.207031 0.484375 11.578125 0.925781 11.207031 1.652344 Z M 6.527344 9.609375 "/></clipPath><clipPath id="dfb08700db-2128"><rect x="0" width="12" y="0" height="10"/></clipPath><clipPath id="e9ce3f96b8-2129"><path d="M 135 67.070312 L 138 67.070312 L 138 69.632812 L 135 69.632812 Z M 135 67.070312 "/></clipPath><clipPath id="7486ccdac5-2130"><path d="M 135.023438 67.089844 L 136.527344 69.613281 L 138 67.101562 Z M 135.023438 67.089844 "/></clipPath><clipPath id="c6791af5c8-2131"><path d="M 0 0.0703125 L 3 0.0703125 L 3 2.632812 L 0 2.632812 Z M 0 0.0703125 "/></clipPath><clipPath id="54873d2d4a-2132"><path d="M 0.0234375 0.0898438 L 1.527344 2.613281 L 3 0.101562 Z M 0.0234375 0.0898438 "/></clipPath><clipPath id="1ca048b761-2133"><rect x="0" width="3" y="0" height="3"/></clipPath></defs><g id="741f208bc2"><g clip-rule="nonzero" clip-path="url(#8dc5c7a000-2013)"><g clip-rule="nonzero" clip-path="url(#7e32710ab1-2014)"><g transform="matrix(1,0,0,1,11,29)"><g clip-path="url(#37c9ee52e9-2017)"><g clip-rule="nonzero" clip-path="url(#31cd46df20-2015)"><g clip-rule="nonzero" clip-path="url(#2fc7e17e30-2016)"><rect x="0" width="32" height="12" y="0" style="fill:#f06722;fill-opacity:1;stroke:none;"/></g></g></g></g></g></g><g clip-rule="nonzero" clip-path="url(#03c489156b-2018)"><g clip-rule="nonzero" clip-path="url(#b30195d385-2019)"><g transform="matrix(1,0,0,1,11,15)"><g clip-path="url(#3ce8df0068-2022)"><g clip-rule="nonzero" clip-path="url(#a91bb1b17d-2020)"><g clip-rule="nonzero" clip-path="url(#47f417bf10-2021)"><rect x="0" width="32" height="18" y="0" style="fill:#f06722;fill-opacity:1;stroke:none;"/></g></g></g></g></g></g><g clip-rule="nonzero" clip-path="url(#581b0add1a-2023)"><g clip-rule="nonzero" clip-path="url(#40be597477-2024)"><g transform="matrix(1,0,0,1,74,60)"><g clip-path="url(#41a991e29d-2027)"><g clip-rule="nonzero" clip-path="url(#6b81741fbc-2025)"><g clip-rule="nonzero" clip-path="url(#ae542a8d5f-2026)"><rect x="0" width="5" height="5" y="0" style="fill:#003d45;fill-opacity:1;stroke:none;"/></g></g></g></g></g></g><g clip-rule="nonzero" clip-path="url(#56e725bee6-2028)"><g clip-rule="nonzero" clip-path="url(#308828b21c-2029)"><g transform="matrix(1,0,0,1,78,60)"><g clip-path="url(#2e38776236-2032)"><g clip-rule="nonzero" clip-path="url(#53d973b6fb-2030)"><g clip-rule="nonzero" clip-path="url(#b23f62117c-2031)"><rect x="0" width="6" height="5" y="0" style="fill:#003d45;fill-opacity:1;stroke:none;"/></g></g></g></g></g></g><g clip-rule="nonzero" clip-path="url(#30849afde6-2033)"><g clip-rule="nonzero" clip-path="url(#df89a6e040-2034)"><g transform="matrix(1,0,0,1,83,60)"><g clip-path="url(#adb7ba7b3a-2037)"><g clip-rule="nonzero" clip-path="url(#1c60250564-2035)"><g clip-rule="nonzero" clip-path="url(#b9248b17d3-2036)"><rect x="0" width="7" height="5" y="0" style="fill:#003d45;fill-opacity:1;stroke:none;"/></g></g></g></g></g></g><g clip-rule="nonzero" clip-path="url(#c2f88de28d-2038)"><g transform="matrix(1,0,0,1,90,60)"><g clip-path="url(#008488cfb6-2040)"><g clip-rule="nonzero" clip-path="url(#7cf5f70ec3-2039)"><rect x="0" width="4" height="5" y="0" style="fill:#003d45;fill-opacity:1;stroke:none;"/></g></g></g></g><g clip-rule="nonzero" clip-path="url(#ad4257d5ef-2041)"><g clip-rule="nonzero" clip-path="url(#da1d728161-2042)"><g transform="matrix(1,0,0,1,94,60)"><g clip-path="url(#26f9d723a5-2045)"><g clip-rule="nonzero" clip-path="url(#2cdf7fbade-2043)"><g clip-rule="nonzero" clip-path="url(#a91e77b4d9-2044)"><rect x="0" width="4" height="5" y="0" style="fill:#003d45;fill-opacity:1;stroke:none;"/></g></g></g></g></g></g><g clip-rule="nonzero" clip-path="url(#1be1eb25c2-2046)"><g transform="matrix(1,0,0,1,98,60)"><g clip-path="url(#de2ac0ffb7-2048)"><g clip-rule="nonzero" clip-path="url(#777afc8008-2047)"><rect x="0" width="4" height="5" y="0" style="fill:#003d45;fill-opacity:1;stroke:none;"/></g></g></g></g><g clip-rule="nonzero" clip-path="url(#93a7597091-2049)"><g clip-rule="nonzero" clip-path="url(#3552d700b6-2050)"><g transform="matrix(1,0,0,1,102,60)"><g clip-path="url(#0b85999736-2053)"><g clip-rule="nonzero" clip-path="url(#931d9c7d98-2051)"><g clip-rule="nonzero" clip-path="url(#50e5a7d8e5-2052)"><rect x="0" width="5" height="5" y="0" style="fill:#003d45;fill-opacity:1;stroke:none;"/></g></g></g></g></g></g><g clip-rule="nonzero" clip-path="url(#98f230fe45-2054)"><g clip-rule="nonzero" clip-path="url(#da9f6602cf-2055)"><g transform="matrix(1,0,0,1,108,60)"><g clip-path="url(#07fd30b1ba-2058)"><g clip-rule="nonzero" clip-path="url(#f54cd71b43-2056)"><g clip-rule="nonzero" clip-path="url(#7bbda16f03-2057)"><rect x="0" width="5" height="5" y="0" style="fill:#003d45;fill-opacity:1;stroke:none;"/></g></g></g></g></g></g><g clip-rule="nonzero" clip-path="url(#e6f3a2b1ee-2059)"><g clip-rule="nonzero" clip-path="url(#c368dc1fcf-2060)"><g transform="matrix(1,0,0,1,112,60)"><g clip-path="url(#cd51e05067-2063)"><g clip-rule="nonzero" clip-path="url(#e731a6c3b3-2061)"><g clip-rule="nonzero" clip-path="url(#1e4fd07253-2062)"><rect x="0" width="5" height="5" y="0" style="fill:#003d45;fill-opacity:1;stroke:none;"/></g></g></g></g></g></g><g clip-rule="nonzero" clip-path="url(#aad458a541-2064)"><g clip-rule="nonzero" clip-path="url(#47803bc0b2-2065)"><g transform="matrix(1,0,0,1,164,16)"><g clip-path="url(#ed63475ed6-2068)"><g clip-rule="nonzero" clip-path="url(#a363f5dead-2066)"><g clip-rule="nonzero" clip-path="url(#c2ff6fccdf-2067)"><rect x="0" width="31" height="36" y="0" style="fill:#1d3226;fill-opacity:1;stroke:none;"/></g></g></g></g></g></g><g clip-rule="nonzero" clip-path="url(#c6469ae2e9-2069)"><g clip-rule="nonzero" clip-path="url(#7e4ba15d66-2070)"><g transform="matrix(1,0,0,1,50,15)"><g clip-path="url(#7bf1aef4ce-2073)"><g clip-rule="nonzero" clip-path="url(#704433786b-2071)"><g clip-rule="nonzero" clip-path="url(#69b9807fa0-2072)"><rect x="0" width="40" height="38" y="0" style="fill:#1d3226;fill-opacity:1;stroke:none;"/></g></g></g></g></g></g><g clip-rule="nonzero" clip-path="url(#ff3fa3a6f4-2074)"><g clip-rule="nonzero" clip-path="url(#88619c7529-2075)"><g transform="matrix(1,0,0,1,87,16)"><g clip-path="url(#a3d03834b0-2078)"><g clip-rule="nonzero" clip-path="url(#22c1e04d9e-2076)"><g clip-rule="nonzero" clip-path="url(#4884197ffa-2077)"><rect x="0" width="35" height="36" y="0" style="fill:#1d3226;fill-opacity:1;stroke:none;"/></g></g></g></g></g></g><g clip-rule="nonzero" clip-path="url(#10563a2453-2079)"><g clip-rule="nonzero" clip-path="url(#3cb9a940bf-2080)"><g transform="matrix(1,0,0,1,123,15)"><g clip-path="url(#55bfff2a1a-2083)"><g clip-rule="nonzero" clip-path="url(#33371fb492-2081)"><g clip-rule="nonzero" clip-path="url(#65b18f6b7d-2082)"><rect x="0" width="39" height="38" y="0" style="fill:#1d3226;fill-opacity:1;stroke:none;"/></g></g></g></g></g></g><g clip-rule="nonzero" clip-path="url(#6fff558c44-2084)"><g clip-rule="nonzero" clip-path="url(#f2a90d8816-2085)"><g transform="matrix(1,0,0,1,185,62)"><g clip-path="url(#3dd98e81dc-2088)"><g clip-rule="nonzero" clip-path="url(#43b194ea83-2086)"><g clip-rule="nonzero" clip-path="url(#bc675f77c8-2087)"><rect x="0" width="10" height="12" y="0" style="fill:#003d45;fill-opacity:1;stroke:none;"/></g></g></g></g></g></g><g clip-rule="nonzero" clip-path="url(#d21b9c4451-2089)"><g clip-rule="nonzero" clip-path="url(#15cc674e52-2090)"><g transform="matrix(1,0,0,1,163,62)"><g clip-path="url(#120bcd13f7-2093)"><g clip-rule="nonzero" clip-path="url(#f612d07e9a-2091)"><g clip-rule="nonzero" clip-path="url(#ee2b470362-2092)"><rect x="0" width="11" height="12" y="0" style="fill:#003d45;fill-opacity:1;stroke:none;"/></g></g></g></g></g></g><g clip-rule="nonzero" clip-path="url(#dc66aa2841-2094)"><g clip-rule="nonzero" clip-path="url(#181e8eb675-2095)"><g transform="matrix(1,0,0,1,174,62)"><g clip-path="url(#085cb137fe-2098)"><g clip-rule="nonzero" clip-path="url(#9495536219-2096)"><g clip-rule="nonzero" clip-path="url(#5c89206e8a-2097)"><rect x="0" width="12" height="12" y="0" style="fill:#003d45;fill-opacity:1;stroke:none;"/></g></g></g></g></g></g><g clip-rule="nonzero" clip-path="url(#fedd4f45d7-2099)"><g clip-rule="nonzero" clip-path="url(#c7481b2103-2100)"><g transform="matrix(1,0,0,1,141,62)"><g clip-path="url(#3c65c7f8b6-2103)"><g clip-rule="nonzero" clip-path="url(#218c687678-2101)"><g clip-rule="nonzero" clip-path="url(#6d3efbeeff-2102)"><rect x="0" width="9" height="12" y="0" style="fill:#003d45;fill-opacity:1;stroke:none;"/></g></g></g></g></g></g><g clip-rule="nonzero" clip-path="url(#c40bf8d834-2104)"><g clip-rule="nonzero" clip-path="url(#3c4685488e-2105)"><g transform="matrix(1,0,0,1,154,62)"><g clip-path="url(#8fadf75b78-2108)"><g clip-rule="nonzero" clip-path="url(#a7dbd47a92-2106)"><g clip-rule="nonzero" clip-path="url(#cd6138c6e1-2107)"><rect x="0" width="10" height="12" y="0" style="fill:#003d45;fill-opacity:1;stroke:none;"/></g></g></g></g></g></g><g clip-rule="nonzero" clip-path="url(#80f8ef6cba-2109)"><g clip-rule="nonzero" clip-path="url(#6b3a6105c3-2110)"><g transform="matrix(1,0,0,1,150,62)"><g clip-path="url(#d39b907539-2113)"><g clip-rule="nonzero" clip-path="url(#85fb2fdf06-2111)"><g clip-rule="nonzero" clip-path="url(#f5679cbbbb-2112)"><rect x="0" width="4" height="12" y="0" style="fill:#003d45;fill-opacity:1;stroke:none;"/></g></g></g></g></g></g><g clip-rule="nonzero" clip-path="url(#51f73b2846-2114)"><g clip-rule="nonzero" clip-path="url(#b81cb3e3e4-2115)"><g transform="matrix(1,0,0,1,126,67)"><g clip-path="url(#264fed20b6-2118)"><g clip-rule="nonzero" clip-path="url(#1f6e054749-2116)"><g clip-rule="nonzero" clip-path="url(#83826ec89c-2117)"><rect x="0" width="11" height="9" y="0" style="fill:#bed535;fill-opacity:1;stroke:none;"/></g></g></g></g></g></g><g clip-rule="nonzero" clip-path="url(#4e956efbe2-2119)"><g clip-rule="nonzero" clip-path="url(#2a752d01c0-2120)"><g transform="matrix(1,0,0,1,123,60)"><g clip-path="url(#694082d3f2-2123)"><g clip-rule="nonzero" clip-path="url(#6fe003710e-2121)"><g clip-rule="nonzero" clip-path="url(#10e22ac71a-2122)"><rect x="0" width="11" height="10" y="0" style="fill:#74c044;fill-opacity:1;stroke:none;"/></g></g></g></g></g></g><g clip-rule="nonzero" clip-path="url(#8a52f4a620-2124)"><g clip-rule="nonzero" clip-path="url(#8543551a30-2125)"><g transform="matrix(1,0,0,1,130,60)"><g clip-path="url(#dfb08700db-2128)"><g clip-rule="nonzero" clip-path="url(#3292dca1ad-2126)"><g clip-rule="nonzero" clip-path="url(#4e9367f229-2127)"><rect x="0" width="12" height="10" y="0" style="fill:#03b19e;fill-opacity:1;stroke:none;"/></g></g></g></g></g></g><g clip-rule="nonzero" clip-path="url(#e9ce3f96b8-2129)"><g clip-rule="nonzero" clip-path="url(#7486ccdac5-2130)"><g transform="matrix(1,0,0,1,135,67)"><g clip-path="url(#1ca048b761-2133)"><g clip-rule="nonzero" clip-path="url(#c6791af5c8-2131)"><g clip-rule="nonzero" clip-path="url(#54873d2d4a-2132)"><rect x="0" width="3" height="3" y="0" style="fill:#bed535;fill-opacity:1;stroke:none;"/></g></g></g></g></g></g></g></svg>